<?xml version="1.0" encoding="UTF-8"?>
<svg id="thumbprint" data-name="Layer 1" xmlns="http://www.w3.org/2000/svg" xmlns:xlink="http://www.w3.org/1999/xlink" version="1.1" viewBox="0 0 222.04 309.1">
  <defs>
    <style>
      .cls-1 {
        mask: url(#mask);
      }

      .cls-2 {
        fill: #000;
      }

      .cls-2, .cls-3 {
        stroke-width: 0px;
      }

      .cls-3 {
        fill: #fff;
      }
    </style>
    <mask id="mask" x="0" y="-1.81" width="222.04" height="310.56" maskUnits="userSpaceOnUse">
      <g id="mask0_188_139" data-name="mask0 188 139">
        <path class="cls-3" d="M222.04-1.81H.04v310.56h222V-1.81Z"/>
      </g>
    </mask>
  </defs>
  <g class="cls-1">
    <g>
      <path class="cls-2" d="M169.06,295.04c-1.53,3.56-6.26,1.94-9.52,3.23-1.38.55-2.39,1.4-3.77,1.82-4.54,1.35-9.82,1.28-14.09,3.03-.73.27-.7,1.31-1.59,1.41h-3.17c-.39,1.29-.5,1.86-1.19,3.03,2.93,1.05,7.01.11,10.91.4.49-.44.58-1.3,1.19-1.62,7.62,0,10.88-4.4,16.87-6.05,1.29-.78,1.6-2.63,3.17-2.42.87.11.96,1.59,1.98,1.82,1.17.25,1.35-.58,2.58-1.01v-3.43c-.89-.51-1.87-.93-3.37-.81v.6h0ZM51.02,294.43c-3.22-.22-6.75,1.35-10.32,1.62-3.17.23-7.07-.81-6.75,2.62,4.22,2.02,7.91-1.63,12.1-2.22,2.09-.29,5.07.89,6.75.2,1.32-1.82,2.66-3.62,4.57-4.84-2.86-1.37-4.95,1.2-6.35,2.62M59.75,290.4c3.37,1.5,9.05.64,9.13-3.63-4.18.05-5.69,2.83-9.13,3.63ZM16.9,238.77c-.44,3.91-6.16,2.48-6.75,6.25,3.04-.61,5.27-2.04,7.54-3.43,3.14.73,3.65-2.85,5.95-3.63-.02-1.18.38-1.82-.2-2.62-2.85-.31-4.58,2.17-6.54,3.43ZM53.01,283.14c1.47-.27,1.48-1.35,2.38-2.22,13.97-5.03,27.11-11.78,37.89-20.57,3.6-2.93,8.07-5.57,10.51-9.08,1.78-2.55,2.93-5.24,4.76-7.66,5.29-7,12.56-13.37,14.09-23.6-.01-.13-.03-.24-.2-.2-7.69,4.72-11.07,13.23-16.47,19.96-4.45,5.56-9.8,11.05-15.08,15.93-8.31,7.69-16.72,13.93-27.58,18.96-3.46,1.6-7.25,3.49-11.11,4.43-1.47.36-2.99-.3-3.97,1.62.6,1.51,2.78,2.78,4.76,2.42M193.27,252.28c.81-1.06,2.5-1.59,3.37-2.62,1.99-2.34,1.9-5.4,3.77-8.67,1.09-1.91,3.01-3.18,4.17-5.04,2.58-4.16,3.55-7.74,5.95-12.7.9-1.85,3.5-4.84,3.37-6.05-.1-1.01-1.81-2.32-3.17-1.82-1.54.56-1.02,3.49-1.19,5.04-.48,4.29-2.64,7.89-4.96,11.49-2.16,3.36-4.29,6.93-6.35,10.29-.79,1.29-2.02,2.46-2.78,3.83-.82,1.48-1.29,3.3-2.18,4.43-1.55,1.99-4.52,3.03-3.97,6.25,3.33.75,2.6-2.64,3.97-4.43M134.15,212.16c-1.18,1.17-3.71,4.19-1.39,5.85,2.64-1.08,2.99-4.49,4.96-6.25.15-1.5-.32-2.36-.2-3.83-2.99-.49-3.6,1.45-3.37,4.23M14.32,196.42c-.63.78-1.61,1.4-2.38,2.22-1.73,1.85-3.09,3.86-5.95,4.23,1.12,3.42-1.43,4.5-3.37,5.44-.13,1.95,1.21,2.4,3.17,2.22.86-1.77,2.4-2.82,3.57-4.43,1.12-1.55,1.91-3.51,3.17-4.84,1.44-1.52,3.03-2.58,4.36-4.03,4.19-4.54,6.83-9.89,9.72-15.93-.01-.13-.03-.24-.2-.2-7.03,2.14-7.87,10.07-12.1,15.33ZM35.35,263.38c7.3.5,12.13-1.33,16.47-4.03,1.68-1.05,3.55-3.8,4.96-4.23,1.23-.39,2.43.12,3.37-.2,1.71-.6,2.69-3.05,4.17-4.23,1.69-1.36,3.82-2.24,5.55-3.43,5.59-3.84,10.24-7.99,14.88-12.7,3.05-3.1,6.45-5.64,8.93-9.28,1.27-1.85,2.31-3.76,3.57-5.64,1.2-1.8,2.77-3.2,4.17-5.04,2.05-2.69,3.67-6.09,5.55-9.08,3.85-6.1,7.5-12.43,9.72-19.76,1.26-4.15,1.22-8.16,1.59-13.31.43-6.02,2.63-12.28,2.38-18.75-.31-7.94-3.85-12.69-11.5-15.33h-.39c-.23.03-.22.32-.2.6-1.28.36-2.61.18-3.77.61-2.43.91-5.7,4.65-6.15,6.65-.37,1.65.13,3.9,0,5.85-.97,14.7-6.8,27.96-13.49,37.91-5.8,8.62-13.87,16.78-21.03,23.8-1.11,1.08-1.94,2.44-2.98,3.43-1.15,1.09-2.7,1.9-3.97,3.02-6.62,5.84-11.44,11.81-18.25,17.55-2.53,2.14-5.53,5.56-7.94,6.45-1.93.72-4.09.2-5.76.81-.86.31-1.38,1.2-2.18,1.62-.84.44-1.69.41-2.38.81-2.04,1.2-3.24,3.75-6.15,4.43,5.98,1.4,8.32-3.27,13.29-4.84.8-.25,1.81-.16,2.58-.4,1.33-.43,2.69-2.45,4.56-1.62.09-.38-.27-1.21.39-1.01,4.6-1.3,6.91-4.94,10.32-7.46h1.98c9.6-8.66,18.09-18.45,27.97-26.82,1.43-3.85,4.82-5.73,7.14-8.67.24-.56.22-1.39.2-2.22,3.49-2.65,6.39-5.79,8.73-9.68,2.35-3.91,3.48-8.54,5.55-12.9,1.08,1.45.28,4.82,1.19,6.45,1.6.23,1.87-2.53,2.78-4.03.65-1.07,1.92-1.37,1.79-2.62-.17-1.63-2.44-1.85-4.17-2.02-.44-5.83,2.92-7.79,2.38-13.71,3.64-1.14.68-7.54,1.59-11.9.49-2.36,2.47-2.83,1.79-5.04,1.74-.85,2.15-3.06,5.16-2.62,1.2,1.64,2.26,1.91,3.17,3.23,2.66,3.85,2.18,10.67,2.18,17.14,0,28.21-13,45.83-25.79,60.5-4.1,4.7-7.96,9.59-12.1,13.71-1.49,1.48-3.28,2.24-4.96,3.63-1.29,1.07-2.27,2.64-3.57,3.83-3.91,3.59-8.92,6.51-12.1,10.49-.92-.13-1.28.32-1.98.4-.87.93-1.65,1.96-2.38,3.03-1.07-.23-2.05,1.25-3.77,1.01-1.77,2.64-5.52,4.42-9.52,2.62.45-1.38,1.94-2.24,2.98-3.02,1.17-.89,2.61-1.67,3.77-2.42,19.38-12.47,34.5-28.2,49-45.17,8.63-10.1,13.4-23.57,15.67-39.93,3.7-3.38.5-14.12,1.79-20.37,0-.81-.77-.83-.99-1.41.6-2.14-.77-4.76-3.17-3.83.51,2.82-1.58,3.25-1.98,4.84-.33,1.33.14,2.81.2,4.24.14,3.19-.11,6.7,0,10.08-.59.2-1.19.41-1.39,1.01-1.47,4.49.75,10.15-.39,14.92-1.29,5.39-7.15,8.78-10.71,12.91-.82.94-1.34,2.2-2.18,3.23-1.82,2.22-4.51,3.77-6.35,6.05-2,2.49-2.9,5.43-4.76,7.67-1.85,2.22-4.25,3.81-6.35,6.05-1.01,1.08-1.7,2.52-2.78,3.63-3.39,3.47-7.48,6.06-9.92,9.88-.44.35-1.49.09-1.98.4-1.37,1.11-2.29,2.42-3.57,3.63-1.32,1.26-3,1.87-4.36,3.03-1.84,1.55-3.17,3.77-4.96,5.44-5.56,5.21-12.06,9-18.06,13.71-1.9-.13-3.12,2.17-4.96,2.62-2.53.62-5.21,0-6.75,2.02,1.31,2.73,3.98,1.19,5.76.4,1.73-.77,4.23-1.35,5.55-2.02,1.12-.57,2.05-1.55,3.17-2.22,2.82-1.67,5.84-2.93,8.53-4.84,5.16-3.66,10.16-8.26,15.08-12.1,2.62-2.04,5.55-3.53,8.13-5.44,2.59-1.92,4.08-5.51,7.54-5.85.43-1.86,2.14-3.08,3.37-4.43,2.49-2.74,4.81-5.94,7.34-8.47,1.37-1.37,3.23-2.26,4.36-3.63.98-1.19,1.08-2.84,1.79-4.23,1.61-3.19,4.48-5.98,6.54-8.87,2.19-3.08,4.02-6.21,6.54-8.67.75,6.76-3.1,10.4-6.15,14.52-7.15,9.65-15.81,17.66-22.22,27.02-5.39,2.14-8.6,7.12-12.9,10.08-1.61,1.12-3.43,1.41-5.36,2.42-2.85,1.5-4.89,4.71-7.34,7.06-2.56,2.47-5.23,4.5-8.13,6.25-.57,2.21-2.28,2.89-3.77,4.03-.6.46-.86,1.11-1.39,1.42-.51.29-1.26.09-1.79.4-.48.28-.73.97-1.19,1.21-3.7,1.91-8.4,2.86-12.5,4.23,7.1,1.12,12.95-1.85,17.66-4.43M100.22,134.11c-.89,1.18-1.85,2.28-2.58,3.63-11.03,6.87-15.52,20.38-23.02,30.86-.29.58.19,2.09,0,3.23-5.02,2.46-6.87,7.65-9.72,12.3-4.5,7.34-10.34,13.83-14.28,21.37-2.3,1.05-4.28,2.32-5.76,4.24-1.01,1.32-1.18,3.42-2.98,4.03-.09.72-.53,1.08-.39,2.02-1.82,1.69-4.47,2.79-5.76,5.04-.49.86-.3,2.24-.79,3.03-.7,1.13-3.25,1.6-2.78,3.83-2.03,2.04-6.16,3.01-6.15,6.45,4.5-1.34,6.29-5.44,9.92-7.66,1.77-3.11,4.89-5.04,7.54-7.66,7.54-7.47,15.02-18.06,22.02-26.41,2.51-2.99,5.57-5.73,7.54-8.67,3.91-5.84,6.71-12.67,10.12-19.16.87-1.65,2.46-5.94,3.77-6.05,2.39-.21.99,2.79,2.58,3.63-9.3,19.79-22.46,35.65-35.51,51.63-.76-.04-1.46,0-1.98.2-2.4,2.69-5.8,4.67-7.94,7.66-1.74,2.44-2.72,5.4-5.16,7.26h-1.58c-1.77,1.46-3.46,3.31-5.16,5.04-1.55,1.57-4.24,3.16-3.77,6.05,2.02.04,2.55-1.45,3.37-2.62,3.02-.63,4.46-3.67,6.95-5.04.74-.41,1.6-.43,2.38-.81,2.29-1.12,4.57-3.57,6.75-5.64,5.47-5.22,9.72-11.75,15.47-15.93,1.24-.9,2.88-1.38,3.97-2.42,2.31-2.21,2.69-6.36,5.76-7.86.35-2.14,2.21-3.46,3.37-5.04,8.43-11.54,15.45-24.06,18.06-41.34-3.79-1.28-3.41,5.09-5.55,5.24-1.16.08-2.03-1.03-1.79-3.03,1.14-1.11,2.29-2.73,3.77-4.23,1.29-1.32,2.75-2.71,3.77-4.24,1.73-2.59,1.6-5.59,3.97-7.46,2.05-1.62,3.96-.58,6.35-1.82.34-.73.49-1.65.39-2.82-1.21-.76-3.31-1.32-5.16-.81M200.41,140.36c.3,1.56-.34,2.8.2,4.43.1.97,1.44.69,1.59,1.62,3.54,20.65,16.14,40.81,9.92,65.74,4.18-.64,2.64-5.31,3.37-8.27.27-1.1,1.26-2.04,1.59-3.43.75-3.11-.44-5.5-.99-7.46-1.1-3.91-1.65-8.51-2.78-13.11-2.03-8.32-4.64-16.85-6.95-24.8-1.28-4.41-2.81-8.8-3.37-12.5-.13-.88.06-1.63-.2-2.42-.33-1.01-1.29-1.75-1.79-2.82-.99-2.17-1.15-4.6-2.18-6.45-3.11,3.01,1.15,7.24,1.59,9.48M176.01,114.95c2.13,2.47,5.02,4.74,4.56,8.47.87.61,1.11,1.48,1.39,2.22,2.12,5.59,3.62,12.13,5.35,18.55,4.97,18.39,9.82,40.6,8.13,64.13-.81,11.23-7.01,18.57-8.93,28.84,5.81-2.66,7.5-10.43,9.72-16.94,6.88-20.18,2.66-44.92-2.38-63.72-2.51-9.37-5.18-17.92-8.33-26.42-1.49-4.02-3.24-7.01-3.17-11.7-4.42-3.53-6.95-9.08-10.71-12.9-2.93-2.97-6.43-5.76-10.72-7.46-.12.01-.24.03-.2.2,4.26,5.14,10.45,11.11,15.28,16.74M133.55,91.96c-.76-1.65-2.89-1.9-4.96-2.22.29,1.97,3.03,3.21,4.96,2.22ZM122.64,88.54c-2.64-1.75-8.46-1.35-11.51-2.02,1.94,2.46,8.28,1.54,11.51,2.02ZM67.29,94.18c2.03-1.04,4.42-1.03,6.54-2.22,1.54-.86,1.66-1.76,3.17-2.62,2.79-1.58,6.91-2.89,10.72-4.03,4.26-1.28,8.24-2.29,12.5-2.42,2.21-.07,1.42.33,3.77.2,4.6-.26,2.99-3.65-.39-3.63-1.72,0-3.4,1.48-5.55,1.82-.83.13-1.75-.11-2.38,0-.96.17-1.58.73-2.18.81-1.72.22-3.43-.46-4.76-.2-.8.16-1.62.88-2.58,1.41-2.71,1.48-5.69,3.16-8.33,4.23-3.95,1.61-7.78,2.57-11.11,4.64-1.39.86-2.34,2.16-3.77,2.82-3.19,1.48-6.64,2.6-9.52,4.44-1.26.81-2.61,1.95-3.97,3.03-1.34,1.06-2.8,2.59-3.97,3.03-1.06.39-1.94.14-2.58.4-1.12.46-1.49,1.59-2.58,2.22-1.92,1.1-4.12,1.44-5.76,2.22-13,6.16-17.84,19.56-26.98,29.85-.04,1.1.14,2.42-.2,3.23-.92.95-2.99.73-3.97,1.62.12,1.96-.25,4.42.2,6.05,1.82-.1,2.09-1.78,2.78-3.03.26-.47,1.36-.09,1.39-.81,2.75-4.75,7.92-8.14,10.12-13.71.62-1.57.68-3.39,1.58-4.84,1.37-2.19,3.92-3.6,6.35-4.44,3.51-3.32,6.08-7.24,9.92-10.29,2.61-2.07,6.3-2.91,7.73-5.85,1.57.31,2.4-1.25,3.57-1.82,1.57-.76,3.3-.92,4.76-1.62,4.49-2.14,7.75-5.28,11.31-8.27,2.03.3,2.67-1.45,4.17-2.22M56.98,90.15c-8.18,4.18-16.76,8.35-21.82,15.53.01-.12.03-.24.2-.2,8.53-3.62,15.79-8.93,23.21-13.91,7.64-5.12,16.2-8.07,25.2-12.1-11.12.8-18.44,6.43-26.78,10.69M58.76,82.08c-3.03,1.3-6.08,2.19-8.93,4.03-2.13,1.38-4.03,3.43-6.15,4.43-2.18,1.04-3.57,1.67-5.36,3.23-4.58,4.02-11.13,6.59-13.29,12.7-1.1.09-1.3,1.1-1.98,1.62h-1.59c-3.64,3.56-7.6,6.79-10.51,11.09.46,4.1-4.07,3.13-3.37,7.46,2.23.45,1.84-1.76,3.57-1.82,1.81-4.84,6.75-6.85,9.72-10.69.72-.93.99-2.03,1.79-2.82,2.06-2.06,4.79-2.88,6.75-5.04,1.19-1.32,1.82-3.1,2.98-4.44,1.83-2.12,4-4.08,6.54-5.24.51-1.1,1.55-1.65,1.98-2.83,5.92-3.06,11.52-6.44,17.06-9.88.94.08,1.66-.06,2.38-.2.67-1.94,4.05-1.12,3.57-4.23-2.56.02-4.25.92-5.16,2.62M32.17,78.65c-2.4,5.02-9.47,5.29-12.1,10.08,5.84-.19,6.99-5.81,12.3-5.85,2.3-.02,3.87-.31,3.57-3.03-.7-.92-2.4-1.62-3.77-1.21ZM94.67,74.62c-.79.3-1.23,1.36-2.18,1.62-1.99.53-3.93-.78-5.36.6,1.27,2.5,4.24.51,6.54.2,2.67-.35,4.68-.51,6.75-.81,1.42-.21,3.15-.11,3.77-1.21-2.69-.17-6.93-1.39-9.52-.4M124.03,76.63c-.65-.31-1.11-1.28-1.79-1.62-3.89-1.93-9.45-.39-13.69.2,2.69,5.54,14.26.82,19.84,3.43-.49-1.8-2.8-1.27-4.36-2.02M25.83,75.43c3.29,2.06,7.17-.8,8.33-3.43-3.9,0-5.52,2.32-8.33,3.43ZM80.18,74.62c3.19-.23,8.22-.11,5.16-3.43-1.39,2.24-5.7.91-8.53,2.02-.79.31-1.47.93-2.18,1.21-2.66,1.07-6.11,1.22-6.54,4.23,3.35-.25,7.66-3.71,12.1-4.03M90.3,72c4.15.33,11.72,1.7,12.5-2.62-4.35-.55-11.32-1.28-12.5,2.62ZM47.25,72c-3.99.91-7.89,1.93-8.93,5.85,5.29-1.35,9.27-4.02,13.29-6.65,2.12.21,3.49-.35,3.17-2.62-3.6.04-6.34.95-7.54,3.43ZM221.24,173.23c-.7-2.32-4.05-4.48-3.37-8.27.12-.76-.59-.51-.79-1.01-.26-.65.03-1.6-.2-2.22-.31-.84-1.23-1.61-1.58-2.42-1.16-2.61-1.67-5.76-2.58-8.67-2.71-8.65-5.7-17-9.32-24.4-2.35-1.6-3.38-4.7-4.96-7.26-5.88-9.57-12.98-17.67-21.43-24.4-3.28-2.62-7.23-4.65-10.72-7.66-9.82-8.52-23.91-12.16-38.48-16.34-7.68-2.2-16.46-3.45-23.21-.81,4.49,2.7,12.17,1.82,18.06,2.22,17.81,1.22,30.77,10.56,43.64,16.74,2.66,2.55,5.12,4.8,7.54,7.26,1.02,1.03,2,2.04,2.98,3.03,2.06,2.09,4.32,3.43,6.75,5.44,6.06,5.04,8.67,13.96,14.68,20.37,1.07,1.13,2.46,1.89,3.37,3.03,3.2,3.98,5.45,10.91,7.14,16.34.89,2.85,1.83,5.84,2.78,8.87.92,2.93,2.58,6.1,2.98,8.87.2,1.41-.36,2.93.2,4.03.33.66,1.7,1.11,2.18,1.82,2.52,3.67,1.36,9.76,3.97,13.91.26-2.81,1.09-6.16.39-8.47M213.7,132.1c-1.79-3.45-3.28-7.2-4.96-10.49-10.4-20.46-26.3-35.81-47.02-45.38-5.73-6.01-17.81-7.83-26.58-11.09-1.21-.45-2.21-1.33-3.37-1.61-1.66-.41-6.57-.31-6.54,1.41.02,1.4,2.77,1.06,4.56,1.21,10.53.87,19.07,5.12,27.58,9.28,8.21,4.02,14.96,9.66,21.62,15.33,9.9,8.43,19.09,18.21,26.19,29.44,2.48,3.92,5.17,7.91,6.75,11.9,1.58,4,2.51,7.7,5.35,11.09,1.37-4.24-1.84-7.76-3.57-11.09M103.79,62.52c-1.45-.13-2.83,1.09-4.17,1.21-18.8,1.69-33.55,5.82-46.62,12.5-4.3,2.19-8.03,4.87-12.3,7.46-3.26,1.97-6.82,3.48-9.32,6.86-5.6,1.06-7.64,5.83-11.51,8.67-1.85,1.37-4.57,1.89-3.97,4.84,3.4.85,4.08-2.17,5.76-4.04.49-.54,1.32-.98,1.98-1.61,2.06-1.98,4.59-4.17,6.94-5.64,3.16-1.98,6.4-3.25,8.93-5.64.9-.85,1.51-2.17,2.38-2.62,1.08-.55,2.51-.46,3.57-1.01,1.42-.75,2.36-2.3,3.77-3.03,1.63-.84,2.88-1.25,4.17-2.02,1.5-.9,2.73-.93,3.37-2.22,2.63.24,3.19-1.28,4.76-2.02,3.41-1.61,8.04-2.69,12.5-4.03,4.39-1.32,9.23-2.87,13.29-3.23,3.17-.28,6.57,1.03,9.32,0,.83-.31,1.53-1.62,2.38-1.82,1.21-.28,2.94.26,4.17.2,3.39-.14,6.93-.09,10.32.2,3.23.28,7.71,1.58,9.13-1.21-5.47-2.39-12.5-1.23-18.85-1.82M51.62,63.73c3.93-.24,7.15-1.2,8.93-3.63-4.03.01-8.39.74-8.93,3.63ZM88.32,57.68c-.99.38-2.01,1.67-2.98,2.02-3.45,1.26-6.75-.44-10.12.4-1.1.28-1.77,1.58-3.17,2.22-2.91,1.33-6.08.93-6.54,3.83,5.85-2.05,11.76-4.05,19.44-4.23.49-3.8,8.15.2,9.92-2.62-1.05-1.6-4.08-2.55-6.54-1.61M63.92,58.89c.28,1.92,3.91,1.67,4.96.61.38-2.4-1.19-2.83-3.37-2.62.54,1.75-1.15,1.25-1.58,2.02M213.7,114.35c.17-5.61-4.55-6.31-6.54-10.29-.5-1-.51-2.21-.99-3.23-.7-1.5-2.59-3.27-4.36-4.84-4.53-4.03-7.73-7.78-12.5-11.49-2.96-2.31-6.32-3.71-9.13-5.64-1.29-.9-2.19-2.32-3.57-3.23-1.19-.78-2.63-1.47-3.97-2.02-1.47-.6-3.38-.65-4.76-1.41-1.29-.71-2.05-2.46-3.37-3.23-1.58-.91-3.68-1.46-5.55-2.42-1.81-.93-3.57-2.07-5.35-2.83-4.11-1.72-8.6-2.24-12.3-4.03-1.22-.59-2.18-1.62-3.37-2.02-4.46-1.47-11.09-1.12-17.26-1.41-6.5-.31-13.52-.8-18.45-.4-1.38.11-1.62.79-2.38,1.82-1.58.12-3.35-.53-2.98,1.21.25,1.17,5.38-.38,5.95-.4,19.86-1.01,40.01,1.89,52.57,7.46,4.8,5.27,12.58,7.51,19.24,10.89,1.65,3.83,6.67,4.24,8.53,7.87,4.08,2.34,7.06,5.56,10.32,8.88,2.41,2.45,5.11,4.62,7.34,7.06,3.43,3.75,6.45,8.19,9.52,12.1,1.07,1.36,2.42,2.47,3.37,3.83,3,4.27,4.29,9.79,7.54,14.12.04-8.04-4.25-11.68-7.54-16.34M42.49,60.3c7.72-1.7,13.51-5.36,21.43-6.86-9.63-1.03-15.99,2.97-21.43,6.86ZM186.13,54.45c2.18,1.1,4,3.65,6.35,5.24,2.5,1.7,5.07,2.98,6.95,4.84.76.76,1.23,1.87,1.98,2.62,1.56,1.55,3.45,2.91,4.96,4.43,1.6,1.63,3.09,4.14,5.75,3.83-.51-5.07-4.97-6.89-8.33-9.28-5.05-3.58-9.18-9.53-15.47-11.69-2.14-2.93-6.36-3.75-10.12-5.04.38,4.17,5.03,3.58,7.94,5.04M148.63,54.85c-7.24-2.67-15.18-3.96-23.02-6.05-2.3-.61-6.46-2.35-9.52-1.01-.68.3-1.13,1.18-1.79,1.41-2.92,1.01-6.61-.65-10.32,0-1.18.21-2.66,1.53-3.77,1.82-1.47.38-3.11.12-4.56.4-3.29.64-6.43,1.75-9.72,2.22-3.54.51-6.96.71-10.32,1.62,3.96,1.34,7.64.03,11.7-.81,2.82-.58,5.9-.82,8.73-1.21,5.88-.81,11.91-1.89,17.65-2.22,23.67-1.33,40,8.84,56.15,15.73-5.69-4.89-12.93-8.84-21.23-11.9M96.06,44.78c-.82.04-.58,1.16-1.39,1.21-1.33.14-2.18-.21-3.37-.2-.81.04-.68,1.06-1.59,1.01-3.5.56-7.23-.85-9.52,0-5.31,1.97-10.23,4.22-16.27,5.24,4.78,1.61,9.35-1.89,14.28-2.62,3.33-.49,7.3-.23,11.11-1.01,3.49-.71,6.9-2,9.92-2.22,4.7-.34,8.52,1.99,11.11-.4-2.92-2.71-9.97-1.82-14.28-1.01M61.14,44.37c-.81.11-.38,1.5-1.19,1.62-1.6.15-2.67-.24-4.17-.2-1.05,1.56-4.3.87-6.75,1.01-1.42,2.25-5.55,1.75-5.95,5.04,2.84,2.37,4.87-1.95,7.34-2.83,1.46-.52,3.58-.05,5.16-.4,2.1-.47,3.91-1.86,6.15-2.42,2.36-.59,4.89.26,7.34-.2.74-.26.51-1.49,1.39-1.62.89-.44,2.75.11,3.37-.6-3.38-3.21-8,1.28-12.69.6M184.54,67.16c-2.61-1.78-5.74-2.37-8.33-4.03-1.37-.88-2.62-2.08-3.97-3.03-1.39-.97-2.74-1.92-4.17-2.83-3.01-1.92-6.29-3.26-9.13-5.04-1.72-1.08-3.56-2.86-6.15-2.83-5.15-4.03-15.66-5.07-23.02-7.46-2.18-.71-4.12-2.12-6.15-2.62-1.62-.39-4.17-.11-6.55,0-1.67.08-3.31-.28-4.57-.2-.94.06-1.9.54-2.98.61-4.89.3-8.6-2.08-14.09-1.41-2.43.29-4.73.98-7.54,1.21-2.63.22-10.51-.11-10.91,1.82-.23,1.12.95,2.27,2.18,2.22,1.12-.05,1.87-1.23,2.78-1.62,7.28-3.06,21.38.22,30.75-1.01,2.65,3.58,8.93.73,13.89,1.62,1.28.23,2.64,1.21,3.97,1.61,4.53,1.38,9.49,1.96,13.29,3.43,1.36,2.08,4.09,1.45,6.75,2.42,2.62.96,3.47,3.38,6.75,2.83,2.25,2.98,5.35,4.74,8.93,6.45,6.5,3.11,12.98,7.12,19.24,10.09.48,2.54,3.7,2.29,4.17,4.84-2.01,2.29-5.71-.95-8.13-2.42-2.53-1.53-4.82-2.61-7.14-3.23-.65.39.3.71.39.81,4.11,3.9,9.35,6.43,14.28,9.28,1.76,1.01,4.06,2.08,5.36,3.23.56.49.89,1.49,1.59,2.22,4.55,4.79,10.15,8.94,13.29,14.52.99.41,1.66,1.14,2.18,2.02.62.04,1.45-.14,1.79.2,1.62,2.59,2.78,5.64,5.35,7.26-1.77-3.31-2.83-7.35-5.76-9.48-.55-3.06-3.27-3.93-4.96-5.85v-1.62c-2.69-3.31-5.68-6.32-8.93-9.08h-1.79c-.74-1.27-1.28-2.73-3.37-2.62-.06-.68.26-1.75-.6-1.62-.72-.52-2.5.49-3.37-.2-.23-2.32,1.79-2.34,3.97-2.22-1.81-4.18-5.65-5.77-9.32-8.27M211.92,83.29c-3.8-4.61-7.47-9.34-13.29-11.9-1.49-1.58-1.57-4.6-4.76-4.43-1.78-2.84-3.96-5.26-7.94-5.84-1.05-2.03-3.34-2.79-5.35-3.83-2.71-3.23-5.85-6.01-8.93-8.88h-1.98c-5.09-5.24-16.59-6.3-25.2-8.88-3.05-.91-6.69-1-9.13-2.22-1.2-.6-1.13-1.65-2.78-1.62-.81.02-2.46.66-2.58,1.62-.31,2.57,3.97,1.84,5.95,2.02,2.68.24,6.04,1.09,8.53,1.62,3.57.75,7.33,2.71,11.11,4.43,10.92,4.98,20.32,11.87,29.96,17.35.99.56,1.92.44,2.58,1.01.61.52.83,1.57,1.39,2.22,1.33,1.54,3.27,3.15,4.96,5.04,1.58,1.77,3.51,3.9,4.96,5.04,1.52,1.21,3.49,1.94,4.36,3.23.75,1.1,1.13,2.25,1.79,3.23.68,1.02,1.28,1.91,2.18,2.83,1.54,1.56,2.91,3.66,6.15,3.43.47-2.97-2.13-2.81-1.98-5.44M198.23,52.44c-2.35-1.28-4.54-3.21-6.35-4.43-4.53-3.09-9.09-5.24-14.28-7.26-8.21-3.19-16.91-4.25-25.2-6.86-3.08-.96-6.03-1.05-9.13-1.61-4.17-.76-8.36-3.14-12.5-3.03-1.8.05-3.57,1.32-5.35,1.62-3.61.6-8.23,0-12.69,0-4.2,0-8.73.86-12.3.61-4.01-.29-8.15-1.38-11.91-.81-1.18.18-2.37,1.06-3.57,1.41-2.46.71-5.31.97-7.94,1.41-2.76.46-5.33,1.37-7.74,1.41-.72.14-1.02.71-1.59,1.01-3.51-1.35-6.08,1.95-8.93,2.42-2.53.42-5.52-.79-7.34,1.01,2.91,3.97,7.96.03,12.1-1.01,4.52-1.13,9.26-.01,11.51-2.42,3.7.8,7.09-1.71,11.51-1.82,4.11-.09,8.79,1.05,12.1.2.96-.24,2.14-1.66,3.17-1.62.77.03,1.62,1.17,2.38,1.41,2.72.88,7.49-.08,11.5,0,1.33.03,2.75.48,3.77.4,1.55-.12,2.27-.85,3.57-1.01,2.84-.36,5.74,0,8.33,0,9.53,0,17.3,1.18,24.21,3.63,5.23,1.85,10.35,2.92,14.28,5.24,1.12.66,2.54,2.66,3.77,2.83,1,.13,2.16-.61,3.37-.61,3.06,0,5.9,1.22,8.53,2.62,2.61,1.39,5.37,2.54,7.54,3.83,2.09,1.25,3.94,3.38,5.95,4.84,2.29,1.66,4.44,2.91,7.34,3.63-1.24-4.02-4.34-4.99-8.13-7.06M58.76,29.45c-.36,3.06,4.52,3.08,4.76.61,1.3-.19,2.8.31,3.57,0-.22-2.12-6.89-2.64-8.33-.61ZM117.88,25.01c-.94-.49-1.26-1.55-2.18-1.82-1.38-.39-3.85.2-5.55.2-3.22,0-6.98-.88-9.92-.61-8.55.8-17.77.6-24.6,2.02-.08,1.27-1.57,1.1-2.18,1.82-2.72-.35-3.99.78-6.15,1.01,1.4,1.15,2.95,1.66,4.96,1.82,10.76.84,20.49-5.88,31.74-3.83.57.42,1.08.92,1.79,1.21,3.33.15,6.8-.55,10.31-.2,3.35.33,6.82,2.29,8.33-.4-.53-2.08-4.27-.9-6.54-1.21M79.19,17.35c-.74-.18-.94-.8-1.79-.81-1.2,0-1.8,1.05-3.17,1.62-.41.17-1.02.18-1.58.4-1.72.66-2.13.39-3.77.4-.44.42-1.82,1.84-1.19,2.02,8.61,1.37,14.19-2.23,21.62-3.03,5.72-.61,11.01.09,17.06,1.01,1.52,1.48,3.35,1.11,5.55,1.01,6.32-.29,12.46,2.12,18.25,3.23.87.17,1.99.12,2.78.4,2.53.9,3.25,3.78,5.75,4.23,1.39-.91,1.45-2.76,3.17-2.83,1.61-.06,3.82,2.77,5.76,2.42,1.2-.22.68-.99,2.18-1.62,4.61,2.96,10.32,4.73,16.47,6.45,5.74,1.61,12.59,2.87,17.26,5.85.76.48,1.29,1.48,2.18,2.02,2.03,1.22,4.97,1.37,7.14,2.62.96.56,1.9,1.53,2.98,2.22,2.18,1.4,3.22,2.39,4.17,4.43,1.82.48,4.25-.11,4.76-1.62-3.95-3.11-8.13-5.99-12.5-8.67-5.34.41-6.98-3.85-10.51-5.44-2.17-.98-4.66-1.01-6.95-1.82-6.22-2.19-12.25-6.33-19.44-6.86-1.49-1.69-4.82-.7-7.54-.81-.28-.95-1.18-.34-1.79-.81-.83-.63-.83-1.77-1.58-2.22-2.56-1.53-8.8-.08-12.9-.4-2.35-.19-4.67-.83-6.95-1.41-2.14-.54-4.25-1.58-6.35-2.02-2.46-.51-4.99-.85-7.54-1.41-4.56-1.01-9.14-1.66-12.3.4-5.87-5.15-12.21,2.74-19.25,1.01M89.31,8.28c.2,1.47,2.11,2.15,3.77,1.82,1.53-.31,1.59-1.71,2.78-1.82.89-.08,3.08,1.3,4.76,1.82,6.97,2.13,17.41,1.28,24.4,1.41,2.11,3.18,7.07,1.29,10.91,1.62,4.61.39,10.16,2.6,15.08,4.23,9.93,3.31,18.92,7.13,27.77,10.89,4.68,1.99,9.64,3.49,13.69,5.64,1.33.71,2.57,2.13,4.56,2.02-.86-2.29-3.57-3.05-5.76-4.23-2.34-1.27-4.31-3.13-6.54-4.43-7.18-4.22-14.94-6.95-23.81-9.68-10.96-3.38-22.81-8.01-36.9-7.66-.75-.05-.45-1.16-1.39-1.01-1.18-.12-1.77.36-2.98.2-.28-.73-.37-1.64-1.39-1.62-2.42-.7-6.76.55-8.33-1.01-3.51,1.16-8.65-.57-11.91.81-.9-2.76-9.26-2.88-8.73,1.01M162.72,12.51c2.51-.74,4.61.7,6.95.81-3.96-4.92-12.2-7.23-20.44-8.47-.35-1.66-2.38-1.62-3.37-2.62-1.52-.1-3.31.26-4.17.2,3.98,6.44,16.41,4.29,21.03,10.09M135.74,0c-2.01-1.13-3.89,1.02-3.37,2.83.59,2.05,4.94,1.56,5.36-.4-.43-1.05-2.05-.87-1.98-2.42"/>
      <path class="cls-2" d="M112.72-1.81h6.15c3.78,1.31,12.36-.58,12.1,4.23-3.95.33-10.13-1.7-14.88-1.62-2.04.04-5.91,1.49-5.55-1.21.15-1.12,1.41-1.03,2.18-1.41"/>
      <path class="cls-2" d="M137.72,2.42c-.41,1.96-4.77,2.46-5.36.4-.52-1.8,1.36-3.95,3.37-2.83-.07,1.55,1.55,1.38,1.98,2.42"/>
      <path class="cls-2" d="M98.04,7.27c3.26-1.38,8.39.35,11.91-.81,1.57,1.56,5.91.31,8.33,1.01,1.02-.03,1.11.89,1.39,1.62,1.21.15,1.8-.33,2.98-.2.94-.15.65.96,1.39,1.01,14.09-.34,25.94,4.29,36.9,7.66,8.86,2.72,16.63,5.46,23.81,9.68,2.23,1.31,4.2,3.16,6.54,4.43,2.18,1.18,4.89,1.94,5.75,4.23-2,.11-3.23-1.3-4.57-2.02-4.04-2.16-9.01-3.66-13.69-5.64-8.85-3.76-17.84-7.59-27.77-10.89-4.92-1.64-10.46-3.85-15.08-4.23-3.85-.33-8.81,1.57-10.91-1.62-6.99-.14-17.43.71-24.4-1.41-1.68-.51-3.87-1.89-4.76-1.82-1.18.11-1.25,1.5-2.78,1.82-1.66.34-3.57-.34-3.77-1.82-.54-3.89,7.83-3.76,8.73-1.01"/>
      <path class="cls-2" d="M98.44,16.34c3.16-2.06,7.74-1.41,12.3-.4,2.55.56,5.08.91,7.54,1.41,2.1.43,4.21,1.47,6.35,2.02,2.27.58,4.59,1.23,6.94,1.41,4.09.32,10.34-1.13,12.9.4.76.46.76,1.58,1.59,2.22.6.46,1.5-.15,1.79.81,2.72.11,6.05-.88,7.54.81,7.19.53,13.22,4.66,19.44,6.86,2.29.81,4.78.83,6.95,1.82,3.54,1.6,5.17,5.85,10.51,5.44,4.37,2.69,8.55,5.56,12.5,8.67-.52,1.51-2.94,2.09-4.76,1.62-.94-2.04-1.99-3.04-4.17-4.44-1.07-.69-2.01-1.66-2.98-2.22-2.18-1.26-5.11-1.4-7.14-2.62-.89-.54-1.42-1.53-2.18-2.02-4.67-2.98-11.52-4.24-17.26-5.85-6.14-1.72-11.86-3.5-16.47-6.45-1.5.62-.99,1.4-2.18,1.61-1.93.35-4.14-2.48-5.76-2.42-1.73.07-1.79,1.91-3.17,2.83-2.49-.46-3.22-3.34-5.75-4.23-.79-.28-1.9-.24-2.78-.4-5.79-1.11-11.93-3.51-18.25-3.23-2.21.1-4.04.48-5.55-1.01-6.06-.91-11.34-1.62-17.06-1.01-7.43.79-13.01,4.39-21.62,3.03-.63-.18.75-1.6,1.19-2.02,1.64-.01,2.05.26,3.77-.4.57-.22,1.18-.24,1.59-.4,1.37-.56,1.98-1.62,3.17-1.62.84,0,1.05.63,1.79.81,7.04,1.73,13.37-6.16,19.25-1.01"/>
      <path class="cls-2" d="M124.43,26.22c-1.51,2.69-4.99.73-8.33.4-3.52-.34-6.99.35-10.31.2-.71-.29-1.21-.79-1.79-1.21-11.25-2.05-20.98,4.67-31.74,3.83-2.01-.16-3.56-.67-4.96-1.82,2.16-.23,3.43-1.36,6.15-1.01.62-.72,2.1-.55,2.18-1.82,6.83-1.42,16.05-1.22,24.6-2.02,2.94-.27,6.7.61,9.92.61,1.71,0,4.18-.6,5.55-.2.92.27,1.24,1.32,2.18,1.82,2.27.31,6.01-.87,6.54,1.21"/>
      <path class="cls-2" d="M67.1,30.06c-.77.31-2.27-.19-3.57,0-.25,2.48-5.13,2.46-4.76-.61,1.44-2.04,8.12-1.52,8.33.61Z"/>
      <path class="cls-2" d="M206.37,59.5c-2.9-.73-5.05-1.97-7.34-3.63-2.01-1.47-3.86-3.6-5.95-4.84-2.18-1.3-4.93-2.44-7.54-3.83-2.64-1.4-5.47-2.61-8.53-2.62-1.22,0-2.37.74-3.37.61-1.23-.16-2.65-2.16-3.77-2.83-3.93-2.32-9.05-3.39-14.28-5.24-6.9-2.44-14.68-3.63-24.21-3.63-2.59,0-5.49-.36-8.33,0-1.3.16-2.02.89-3.57,1.01-1.02.08-2.44-.38-3.77-.4-4.01-.08-8.79.88-11.5,0-.76-.24-1.61-1.38-2.38-1.41-1.03-.04-2.22,1.37-3.17,1.61-3.31.85-7.99-.3-12.1-.2-4.41.11-7.8,2.61-11.51,1.82-2.25,2.41-6.99,1.29-11.51,2.42-4.14,1.03-9.19,4.98-12.1,1.01,1.82-1.8,4.81-.59,7.34-1.01,2.85-.48,5.42-3.77,8.93-2.42.57-.29.86-.87,1.59-1.01,2.41-.04,4.98-.95,7.73-1.41,2.63-.44,5.47-.7,7.94-1.41,1.2-.34,2.38-1.23,3.57-1.41,3.75-.58,7.89.51,11.91.81,3.57.26,8.1-.61,12.3-.61,4.47,0,9.09.6,12.69,0,1.79-.3,3.55-1.56,5.35-1.61,4.14-.11,8.33,2.26,12.5,3.03,3.09.56,6.05.65,9.13,1.62,8.29,2.61,16.98,3.66,25.2,6.86,5.2,2.02,9.76,4.17,14.29,7.26,1.8,1.23,4,3.16,6.35,4.43,3.8,2.07,6.89,3.03,8.13,7.06"/>
      <path class="cls-2" d="M213.9,88.74c-3.24.23-4.62-1.87-6.15-3.43-.9-.91-1.5-1.8-2.18-2.82-.65-.98-1.04-2.13-1.79-3.23-.88-1.28-2.84-2.02-4.36-3.23-1.45-1.15-3.38-3.28-4.96-5.04-1.69-1.89-3.63-3.5-4.96-5.04-.56-.65-.78-1.7-1.39-2.22-.67-.56-1.59-.44-2.58-1.01-9.63-5.47-19.04-12.36-29.96-17.35-3.77-1.72-7.54-3.68-11.11-4.43-2.49-.53-5.85-1.38-8.53-1.61-1.98-.18-6.27.55-5.95-2.02.12-.96,1.76-1.6,2.58-1.62,1.65-.04,1.58,1.01,2.78,1.62,2.44,1.22,6.08,1.3,9.13,2.22,8.6,2.57,20.1,3.64,25.2,8.88h1.98c3.07,2.86,6.22,5.64,8.93,8.87,2.01,1.05,4.31,1.8,5.35,3.83,3.98.6,6.16,3.01,7.94,5.85,3.2-.16,3.28,2.85,4.76,4.43,5.82,2.56,9.5,7.29,13.29,11.9-.14,2.63,2.45,2.48,1.98,5.44"/>
      <path class="cls-2" d="M193.86,75.43c-2.18-.13-4.2-.1-3.97,2.22.88.7,2.65-.31,3.37.2.86-.13.54.93.6,1.62,2.09-.11,2.63,1.35,3.37,2.62h1.79c3.24,2.76,6.24,5.76,8.93,9.08v1.62c1.69,1.92,4.4,2.78,4.96,5.85,2.93,2.14,3.98,6.17,5.76,9.48-2.58-1.62-3.74-4.67-5.35-7.26-.33-.34-1.17-.16-1.79-.2-.52-.88-1.2-1.61-2.18-2.02-3.14-5.58-8.74-9.74-13.29-14.52-.7-.73-1.03-1.72-1.59-2.22-1.29-1.15-3.6-2.21-5.36-3.23-4.93-2.85-10.17-5.37-14.28-9.28-.1-.09-1.05-.42-.39-.81,2.32.61,4.61,1.7,7.14,3.23,2.43,1.47,6.12,4.71,8.13,2.42-.46-2.56-3.7-2.29-4.17-4.84-6.26-2.97-12.74-6.98-19.24-10.09-3.58-1.71-6.67-3.47-8.93-6.45-3.28.55-4.13-1.86-6.75-2.83-2.66-.98-5.39-.34-6.75-2.42-3.8-1.47-8.76-2.04-13.29-3.43-1.33-.41-2.69-1.38-3.97-1.62-4.96-.88-11.23,1.97-13.89-1.61-9.37,1.23-23.47-2.05-30.75,1.01-.91.38-1.66,1.56-2.78,1.62-1.24.06-2.42-1.1-2.18-2.22.39-1.92,8.29-1.6,10.91-1.82,2.82-.23,5.11-.91,7.54-1.21,5.48-.67,9.2,1.71,14.09,1.41,1.07-.07,2.03-.55,2.98-.6,1.24-.08,2.89.28,4.56.2,2.38-.11,4.93-.39,6.54,0,2.03.5,3.97,1.91,6.15,2.62,7.36,2.39,17.86,3.43,23.02,7.46,2.6-.04,4.43,1.74,6.15,2.83,2.84,1.78,6.11,3.13,9.13,5.04,1.43.91,2.78,1.85,4.17,2.83,1.35.94,2.59,2.14,3.97,3.03,2.59,1.66,5.73,2.25,8.33,4.03,3.67,2.5,7.52,4.09,9.32,8.27"/>
      <path class="cls-2" d="M73.84,43.77c-.62.71-2.48.16-3.37.61-.88.12-.65,1.36-1.39,1.61-2.45.46-4.98-.38-7.34.2-2.24.56-4.05,1.95-6.15,2.42-1.58.36-3.7-.12-5.16.4-2.46.88-4.5,5.2-7.34,2.83.41-3.29,4.53-2.79,5.95-5.04,2.44-.14,5.7.55,6.75-1.01,1.49-.04,2.56.35,4.17.2.81-.11.38-1.5,1.19-1.61,4.69.68,9.32-3.82,12.69-.61"/>
      <path class="cls-2" d="M110.34,45.78c-2.6,2.39-6.41.06-11.11.4-3.03.22-6.42,1.51-9.92,2.22-3.81.78-7.78.51-11.11,1.01-4.94.73-9.5,4.23-14.28,2.62,6.04-1.03,10.96-3.28,16.27-5.24,2.29-.85,6.03.56,9.52,0,.91.05.77-.96,1.58-1.01,1.2,0,2.05.34,3.37.2.81-.06.57-1.17,1.39-1.21,4.32-.81,11.37-1.7,14.28,1.01"/>
      <path class="cls-2" d="M169.86,66.76c-16.15-6.89-32.48-17.06-56.14-15.73-5.75.33-11.78,1.4-17.66,2.22-2.83.39-5.9.63-8.73,1.21-4.07.84-7.74,2.14-11.7.81,3.36-.91,6.77-1.1,10.32-1.61,3.28-.48,6.43-1.58,9.72-2.22,1.46-.28,3.09-.03,4.56-.4,1.11-.29,2.58-1.61,3.77-1.82,3.7-.65,7.39,1.01,10.31,0,.66-.23,1.11-1.11,1.79-1.41,3.06-1.34,7.22.39,9.52,1.01,7.83,2.09,15.78,3.38,23.02,6.05,8.3,3.06,15.53,7.01,21.23,11.9"/>
      <path class="cls-2" d="M178.19,49.41c3.75,1.3,7.97,2.11,10.12,5.04,6.3,2.17,10.42,8.11,15.47,11.69,3.37,2.39,7.83,4.2,8.33,9.28-2.66.31-4.15-2.2-5.76-3.83-1.51-1.53-3.4-2.89-4.96-4.43-.76-.75-1.22-1.86-1.98-2.62-1.87-1.87-4.44-3.14-6.95-4.84-2.35-1.6-4.17-4.15-6.35-5.24-2.91-1.46-7.56-.88-7.94-5.04"/>
      <path class="cls-2" d="M63.92,53.44c-7.92,1.5-13.71,5.16-21.43,6.86,5.44-3.89,11.79-7.89,21.43-6.86Z"/>
      <path class="cls-2" d="M221.24,130.68c-3.25-4.32-4.54-9.85-7.54-14.12-.96-1.35-2.3-2.47-3.37-3.83-3.07-3.91-6.1-8.35-9.52-12.1-2.23-2.44-4.93-4.61-7.34-7.06-3.26-3.31-6.24-6.53-10.32-8.88-1.86-3.62-6.88-4.03-8.53-7.86-6.66-3.38-14.45-5.62-19.24-10.89-12.56-5.57-32.72-8.48-52.57-7.46-.57.03-5.69,1.57-5.95.4-.38-1.74,1.4-1.1,2.98-1.21.76-1.03,1.01-1.7,2.38-1.82,4.93-.39,11.95.09,18.45.4,6.17.29,12.8-.06,17.26,1.41,1.19.39,2.16,1.43,3.37,2.02,3.7,1.79,8.19,2.31,12.3,4.03,1.79.75,3.54,1.89,5.35,2.83,1.87.96,3.97,1.5,5.55,2.42,1.32.76,2.08,2.51,3.37,3.23,1.39.76,3.28.81,4.76,1.41,1.34.54,2.78,1.24,3.97,2.02,1.37.9,2.27,2.33,3.57,3.23,2.8,1.94,6.16,3.35,9.13,5.64,4.78,3.71,7.97,7.47,12.5,11.49,1.77,1.57,3.66,3.34,4.36,4.84.47,1.01.49,2.23.99,3.23,2,3.98,6.72,4.67,6.54,10.29,3.29,4.65,7.58,8.29,7.54,16.34"/>
      <path class="cls-2" d="M65.51,56.87c2.18-.2,3.75.23,3.37,2.62-1.05,1.06-4.68,1.32-4.96-.61.44-.77,2.13-.26,1.58-2.02"/>
      <path class="cls-2" d="M94.87,59.3c-1.77,2.83-9.43-1.17-9.92,2.62-7.68.19-13.59,2.18-19.44,4.23.47-2.91,3.64-2.51,6.54-3.83,1.41-.64,2.07-1.94,3.17-2.22,3.36-.85,6.67.86,10.12-.4.97-.35,1.99-1.64,2.98-2.02,2.46-.94,5.5.01,6.54,1.62"/>
      <path class="cls-2" d="M60.55,60.1c-1.77,2.43-5,3.4-8.93,3.63.54-2.89,4.9-3.62,8.93-3.63Z"/>
      <path class="cls-2" d="M122.64,64.34c-1.42,2.79-5.89,1.48-9.13,1.21-3.38-.29-6.93-.34-10.32-.2-1.23.05-2.96-.48-4.17-.2-.85.2-1.55,1.5-2.38,1.82-2.75,1.02-6.16-.28-9.32,0-4.07.36-8.9,1.91-13.29,3.23-4.47,1.34-9.08,2.42-12.5,4.03-1.58.74-2.13,2.26-4.76,2.02-.64,1.29-1.87,1.32-3.37,2.22-1.28.77-2.54,1.18-4.17,2.02-1.41.73-2.35,2.28-3.77,3.03-1.05.55-2.49.46-3.57,1.01-.88.44-1.48,1.77-2.38,2.62-2.53,2.39-5.77,3.66-8.93,5.64-2.35,1.47-4.88,3.67-6.94,5.64-.66.63-1.5,1.08-1.98,1.62-1.68,1.87-2.35,4.89-5.76,4.03-.6-2.96,2.11-3.48,3.97-4.84,3.87-2.85,5.91-7.61,11.51-8.67,2.5-3.38,6.06-4.88,9.32-6.86,4.27-2.59,8-5.27,12.3-7.46,13.07-6.68,27.83-10.82,46.62-12.5,1.33-.12,2.72-1.35,4.17-1.21,6.34.59,13.37-.57,18.85,1.82"/>
      <path class="cls-2" d="M217.27,143.18c-2.85-3.39-3.78-7.09-5.35-11.09-1.57-3.98-4.26-7.97-6.75-11.9-7.09-11.23-16.28-21.02-26.19-29.44-6.67-5.67-13.41-11.31-21.62-15.33-8.51-4.16-17.05-8.4-27.58-9.28-1.8-.15-4.55.19-4.56-1.21-.02-1.73,4.88-1.82,6.54-1.41,1.16.28,2.16,1.17,3.37,1.62,8.77,3.26,20.85,5.09,26.58,11.09,20.72,9.57,36.62,24.92,47.02,45.38,1.67,3.29,3.17,7.03,4.96,10.49,1.73,3.33,4.94,6.85,3.57,11.09"/>
      <path class="cls-2" d="M220.85,181.7c-2.61-4.15-1.45-10.24-3.97-13.91-.49-.7-1.85-1.15-2.18-1.82-.55-1.11,0-2.62-.2-4.03-.4-2.77-2.06-5.95-2.98-8.87-.95-3.03-1.89-6.02-2.78-8.88-1.69-5.43-3.94-12.35-7.14-16.34-.91-1.13-2.31-1.89-3.37-3.02-6.01-6.41-8.63-15.33-14.68-20.37-2.42-2.02-4.69-3.35-6.75-5.44-.97-.99-1.96-1.99-2.98-3.03-2.42-2.46-4.88-4.71-7.54-7.26-12.87-6.18-25.84-15.52-43.65-16.74-5.89-.4-13.56.48-18.06-2.22,6.75-2.64,15.53-1.39,23.21.81,14.57,4.17,28.67,7.81,38.49,16.34,3.48,3.02,7.43,5.04,10.71,7.66,8.44,6.73,15.54,14.83,21.43,24.4,1.58,2.56,2.61,5.66,4.96,7.26,3.62,7.4,6.62,15.75,9.32,24.4.91,2.91,1.42,6.06,2.58,8.67.36.81,1.27,1.58,1.59,2.42.23.61-.07,1.57.2,2.22.2.5.91.25.79,1.01-.68,3.79,2.68,5.94,3.37,8.27.69,2.31-.13,5.66-.39,8.47"/>
      <path class="cls-2" d="M54.79,68.57c.31,2.27-1.05,2.83-3.17,2.62-4.02,2.63-8,5.31-13.29,6.65,1.04-3.92,4.94-4.93,8.93-5.85,1.2-2.48,3.94-3.39,7.54-3.43"/>
      <path class="cls-2" d="M102.8,69.37c-.78,4.32-8.34,2.95-12.5,2.62,1.18-3.9,8.15-3.18,12.5-2.62Z"/>
      <path class="cls-2" d="M68.09,78.65c.44-3.02,3.88-3.16,6.54-4.23.71-.28,1.39-.9,2.18-1.21,2.83-1.1,7.14.23,8.53-2.02,3.06,3.31-1.97,3.2-5.16,3.43-4.44.32-8.75,3.78-12.1,4.03"/>
      <path class="cls-2" d="M34.16,72c-1.17,2.62-5.04,5.49-8.33,3.43,2.82-1.1,4.43-3.43,8.33-3.43Z"/>
      <path class="cls-2" d="M128.39,78.65c-5.58-2.61-17.14,2.11-19.84-3.43,4.23-.59,9.8-2.13,13.69-.2.67.33,1.13,1.3,1.79,1.62,1.57.75,3.88.22,4.36,2.02"/>
      <path class="cls-2" d="M104.19,75.02c-.62,1.1-2.34,1.01-3.77,1.21-2.07.29-4.08.46-6.74.81-2.3.3-5.28,2.3-6.54-.2,1.44-1.39,3.37-.07,5.36-.6.96-.26,1.39-1.31,2.18-1.62,2.59-.99,6.83.23,9.52.4Z"/>
      <path class="cls-2" d="M35.95,79.87c.3,2.72-1.26,3.01-3.57,3.03-5.31.04-6.46,5.65-12.3,5.85,2.63-4.79,9.7-5.07,12.1-10.08,1.37-.41,3.07.29,3.77,1.21Z"/>
      <path class="cls-2" d="M63.92,79.46c.49,3.12-2.9,2.3-3.57,4.23-.73.14-1.44.28-2.38.2-5.54,3.45-11.15,6.82-17.06,9.88-.44,1.17-1.48,1.73-1.98,2.83-2.55,1.17-4.72,3.12-6.54,5.24-1.15,1.34-1.79,3.11-2.98,4.43-1.95,2.16-4.68,2.99-6.75,5.04-.8.8-1.07,1.89-1.79,2.83-2.98,3.83-7.91,5.84-9.72,10.69-1.73.05-1.34,2.26-3.57,1.82-.69-4.33,3.83-3.37,3.37-7.46,2.91-4.3,6.88-7.52,10.51-11.09h1.58c.68-.51.89-1.52,1.98-1.62,2.16-6.11,8.71-8.69,13.29-12.7,1.78-1.56,3.18-2.19,5.36-3.23,2.12-1.01,4.02-3.06,6.15-4.43,2.85-1.84,5.9-2.73,8.93-4.03.91-1.7,2.6-2.6,5.16-2.62"/>
      <path class="cls-2" d="M63.13,96.4c-3.56,2.99-6.82,6.13-11.31,8.27-1.45.69-3.19.85-4.76,1.61-1.18.57-2,2.12-3.57,1.82-1.44,2.94-5.13,3.78-7.73,5.85-3.85,3.05-6.42,6.97-9.92,10.29-2.43.84-4.99,2.24-6.35,4.43-.91,1.45-.97,3.27-1.59,4.84-2.19,5.58-7.37,8.97-10.12,13.71-.02.72-1.13.34-1.39.81-.69,1.25-.96,2.93-2.78,3.02-.44-1.63-.08-4.09-.2-6.05.98-.89,3.05-.66,3.97-1.62.33-.8.15-2.13.2-3.23,9.14-10.28,13.98-23.69,26.98-29.85,1.64-.78,3.83-1.12,5.76-2.22,1.09-.63,1.45-1.75,2.58-2.22.63-.26,1.52-.01,2.58-.4,1.17-.43,2.63-1.97,3.97-3.02,1.36-1.08,2.71-2.22,3.97-3.03,2.88-1.84,6.33-2.96,9.52-4.43,1.44-.66,2.38-1.97,3.77-2.83,3.33-2.07,7.16-3.03,11.11-4.64,2.64-1.08,5.63-2.75,8.33-4.23.96-.53,1.78-1.25,2.58-1.41,1.33-.26,3.04.42,4.76.2.6-.08,1.22-.64,2.18-.81.63-.11,1.55.13,2.38,0,2.15-.33,3.84-1.81,5.56-1.82,3.39-.01,5,3.38.39,3.63-2.35.13-1.57-.27-3.77-.2-4.26.13-8.23,1.14-12.5,2.42-3.81,1.14-7.93,2.45-10.71,4.03-1.52.86-1.63,1.77-3.17,2.62-2.12,1.18-4.51,1.18-6.54,2.22-1.5.76-2.14,2.52-4.17,2.22"/>
      <path class="cls-2" d="M111.14,86.52c3.04.67,8.86.27,11.51,2.02-3.24-.48-9.56.45-11.51-2.02Z"/>
      <path class="cls-2" d="M128.6,89.74c2.07.31,4.2.57,4.96,2.22-1.93.99-4.66-.25-4.96-2.22Z"/>
      <path class="cls-2" d="M160.73,98.21c-.04-.17.07-.19.2-.2,4.28,1.7,7.79,4.49,10.72,7.46,3.76,3.82,6.29,9.37,10.71,12.9-.06,4.68,1.69,7.68,3.17,11.69,3.15,8.5,5.82,17.05,8.33,26.42,5.04,18.8,9.25,43.55,2.38,63.72-2.22,6.51-3.91,14.28-9.72,16.94,1.92-10.27,8.12-17.61,8.93-28.84,1.68-23.53-3.16-45.74-8.13-64.13-1.74-6.43-3.24-12.97-5.36-18.55-.28-.74-.52-1.61-1.39-2.22.46-3.73-2.44-6-4.56-8.47-4.83-5.63-11.02-11.6-15.28-16.74"/>
      <path class="cls-2" d="M198.82,130.89c1.04,1.85,1.2,4.28,2.18,6.45.49,1.08,1.45,1.82,1.79,2.82.26.79.06,1.54.2,2.42.57,3.7,2.1,8.09,3.37,12.5,2.31,7.96,4.91,16.48,6.95,24.8,1.12,4.6,1.68,9.2,2.78,13.11.56,1.96,1.74,4.35.99,7.46-.33,1.39-1.31,2.32-1.59,3.43-.73,2.96.81,7.63-3.37,8.27,6.22-24.93-6.37-45.09-9.92-65.74-.15-.92-1.48-.65-1.58-1.62-.54-1.63.1-2.88-.2-4.43-.44-2.24-4.69-6.46-1.59-9.48Z"/>
      <path class="cls-2" d="M105.38,134.91c.1,1.18-.06,2.09-.39,2.82-2.39,1.23-4.3.19-6.35,1.82-2.37,1.87-2.24,4.87-3.97,7.46-1.02,1.53-2.48,2.92-3.77,4.23-1.48,1.5-2.63,3.13-3.77,4.24-.25,2,.63,3.11,1.79,3.02,2.15-.16,1.76-6.52,5.55-5.24-2.61,17.28-9.62,29.8-18.06,41.34-1.16,1.58-3.02,2.9-3.37,5.04-3.06,1.5-3.44,5.65-5.76,7.86-1.08,1.04-2.72,1.52-3.97,2.42-5.76,4.18-10,10.71-15.47,15.93-2.18,2.07-4.46,4.53-6.75,5.64-.78.38-1.64.4-2.38.81-2.49,1.37-3.93,4.41-6.95,5.04-.83,1.18-1.35,2.66-3.37,2.62-.47-2.89,2.22-4.48,3.77-6.05,1.7-1.73,3.39-3.58,5.16-5.04h1.59c2.43-1.86,3.41-4.82,5.16-7.26,2.13-2.99,5.53-4.97,7.94-7.66.52-.21,1.22-.24,1.98-.2,13.05-15.98,26.21-31.84,35.51-51.63-1.58-.83-.18-3.83-2.58-3.63-1.31.11-2.9,4.4-3.77,6.05-3.41,6.5-6.21,13.32-10.12,19.15-1.97,2.95-5.03,5.68-7.54,8.67-7,8.36-14.49,18.94-22.02,26.42-2.64,2.62-5.76,4.56-7.54,7.66-3.63,2.23-5.42,6.32-9.92,7.66-.01-3.44,4.12-4.42,6.15-6.45-.48-2.24,2.08-2.7,2.78-3.83.49-.79.31-2.17.79-3.02,1.28-2.25,3.94-3.35,5.76-5.04-.13-.94.31-1.3.39-2.02,1.79-.61,1.97-2.72,2.98-4.03,1.47-1.91,3.45-3.19,5.76-4.23,3.94-7.54,9.79-14.04,14.28-21.37,2.85-4.65,4.7-9.84,9.72-12.3.19-1.14-.29-2.65,0-3.23,7.49-10.47,11.98-23.99,23.02-30.86.73-1.35,1.69-2.45,2.58-3.63,1.85-.51,3.95.04,5.16.81"/>
      <path class="cls-2" d="M17.69,267.81c4.1-1.38,8.8-2.32,12.5-4.23.46-.24.71-.93,1.19-1.21.52-.31,1.28-.11,1.79-.4.52-.31.79-.96,1.39-1.42,1.49-1.13,3.2-1.82,3.77-4.03,2.9-1.75,5.57-3.78,8.13-6.25,2.45-2.35,4.49-5.56,7.34-7.06,1.92-1.01,3.74-1.31,5.36-2.42,4.3-2.96,7.5-7.95,12.9-10.08,6.41-9.36,15.07-17.38,22.22-27.02,3.05-4.12,6.9-7.76,6.15-14.52-2.52,2.47-4.35,5.59-6.54,8.67-2.06,2.89-4.93,5.69-6.54,8.88-.71,1.4-.8,3.04-1.79,4.23-1.13,1.38-2.99,2.26-4.36,3.63-2.53,2.53-4.86,5.73-7.34,8.47-1.24,1.36-2.95,2.57-3.37,4.43-3.46.34-4.95,3.93-7.54,5.85-2.59,1.92-5.52,3.4-8.13,5.44-4.92,3.84-9.92,8.44-15.08,12.1-2.7,1.91-5.72,3.17-8.53,4.84-1.12.66-2.05,1.65-3.17,2.22-1.32.67-3.82,1.25-5.55,2.02-1.77.79-4.44,2.32-5.76-.4,1.53-2.01,4.22-1.4,6.75-2.02,1.84-.45,3.06-2.76,4.96-2.62,5.99-4.72,12.5-8.5,18.06-13.71,1.79-1.67,3.12-3.9,4.96-5.44,1.36-1.15,3.04-1.77,4.36-3.03,1.28-1.21,2.2-2.52,3.57-3.63.49-.31,1.54-.05,1.98-.4,2.43-3.81,6.53-6.41,9.92-9.88,1.08-1.1,1.76-2.55,2.78-3.63,2.1-2.24,4.5-3.83,6.35-6.05,1.86-2.24,2.76-5.17,4.76-7.66,1.84-2.28,4.52-3.83,6.35-6.05.84-1.03,1.36-2.28,2.18-3.23,3.56-4.12,9.42-7.52,10.71-12.9,1.15-4.77-1.08-10.43.39-14.92.2-.6.79-.81,1.39-1.01-.1-3.38.14-6.9,0-10.08-.06-1.42-.53-2.91-.2-4.24.4-1.59,2.49-2.02,1.98-4.84,2.4-.93,3.77,1.68,3.17,3.83.22.58,1,.59.99,1.41-1.28,6.24,1.92,16.99-1.79,20.36-2.27,16.36-7.04,29.83-15.67,39.93-14.51,16.98-29.62,32.7-49,45.17-1.16.75-2.6,1.53-3.77,2.42-1.04.79-2.53,1.65-2.98,3.03,4,1.8,7.75.02,9.52-2.62,1.72.24,2.7-1.24,3.77-1.01.73-1.07,1.51-2.09,2.38-3.03.71-.09,1.06-.54,1.98-.4,3.18-3.98,8.2-6.9,12.1-10.49,1.29-1.19,2.28-2.76,3.57-3.83,1.68-1.4,3.48-2.15,4.96-3.63,4.14-4.12,8.01-9.01,12.1-13.71,12.79-14.67,25.79-32.29,25.79-60.5,0-6.47.48-13.3-2.18-17.15-.91-1.32-1.98-1.58-3.17-3.23-3.01-.43-3.42,1.77-5.16,2.62.68,2.22-1.29,2.69-1.79,5.04-.91,4.36,2.06,10.76-1.59,11.9.54,5.93-2.82,7.89-2.38,13.71,1.73.16,4,.39,4.17,2.02.13,1.26-1.14,1.56-1.79,2.62-.91,1.5-1.18,4.27-2.78,4.03-.91-1.63-.1-5-1.19-6.45-2.07,4.37-3.2,9-5.55,12.9-2.34,3.89-5.24,7.03-8.73,9.68.02.83.04,1.65-.2,2.22-2.32,2.94-5.71,4.82-7.14,8.67-9.89,8.37-18.37,18.16-27.97,26.82h-1.98c-3.41,2.52-5.71,6.16-10.32,7.46-.67-.21-.31.63-.39,1.01-1.87-.83-3.23,1.18-4.57,1.62-.76.24-1.77.15-2.58.4-4.97,1.57-7.31,6.24-13.29,4.84,2.91-.69,4.11-3.24,6.15-4.43.68-.4,1.53-.37,2.38-.81.81-.42,1.32-1.3,2.18-1.62,1.66-.6,3.81-.09,5.76-.81,2.41-.9,5.4-4.32,7.94-6.45,6.82-5.74,11.63-11.71,18.25-17.55,1.27-1.12,2.82-1.93,3.97-3.02,1.04-.98,1.87-2.34,2.98-3.43,7.17-7.02,15.23-15.18,21.03-23.8,6.69-9.95,12.52-23.21,13.49-37.91.13-1.95-.37-4.2,0-5.85.45-2.01,3.72-5.75,6.15-6.65,1.16-.43,2.5-.25,3.77-.61-.02-.29-.03-.57.2-.61h.39c7.66,2.64,11.2,7.39,11.51,15.33.25,6.47-1.95,12.74-2.38,18.75-.37,5.15-.33,9.16-1.59,13.31-2.21,7.33-5.87,13.67-9.72,19.76-1.89,2.99-3.51,6.38-5.55,9.08-1.4,1.84-2.96,3.24-4.17,5.04-1.26,1.88-2.3,3.79-3.57,5.64-2.48,3.64-5.88,6.18-8.93,9.28-4.64,4.72-9.29,8.86-14.88,12.7-1.74,1.19-3.86,2.07-5.55,3.43-1.48,1.18-2.46,3.64-4.17,4.23-.94.33-2.14-.19-3.37.2-1.41.45-3.28,3.19-4.96,4.24-4.34,2.7-9.17,4.54-16.47,4.03-4.7,2.59-10.56,5.56-17.66,4.43"/>
      <path class="cls-2" d="M222.04,152.46v2.62c-2.3.97-1.79-1.16-2.58-2.62-.7-1.3-1.63-1.77-1.79-2.82-.31-2.09.41-5.08,2.18-4.84,2.67.36.26,6.12,2.18,7.66"/>
      <path class="cls-2" d="M26.42,181.1c.17-.04.18.08.2.2-2.9,6.04-5.53,11.39-9.72,15.93-1.34,1.45-2.92,2.51-4.36,4.03-1.27,1.33-2.06,3.29-3.17,4.84-1.16,1.62-2.71,2.67-3.57,4.44-1.97.19-3.3-.27-3.17-2.22,1.94-.94,4.5-2.02,3.37-5.44,2.86-.38,4.22-2.38,5.95-4.23.77-.82,1.75-1.44,2.38-2.22,4.23-5.26,5.07-13.19,12.1-15.33"/>
      <path class="cls-2" d="M137.52,207.92c-.12,1.47.35,2.34.2,3.83-1.97,1.77-2.32,5.17-4.96,6.25-2.32-1.66.2-4.68,1.39-5.85-.23-2.79.38-4.72,3.37-4.23"/>
      <path class="cls-2" d="M189.3,256.72c-.55-3.23,2.42-4.27,3.97-6.25.89-1.13,1.36-2.96,2.18-4.43.76-1.38,1.98-2.54,2.78-3.83,2.06-3.36,4.19-6.93,6.35-10.29,2.32-3.61,4.48-7.21,4.96-11.49.17-1.55-.35-4.48,1.19-5.04,1.36-.5,3.07.8,3.17,1.82.12,1.21-2.48,4.2-3.37,6.05-2.4,4.97-3.37,8.54-5.95,12.7-1.15,1.87-3.08,3.13-4.17,5.04-1.87,3.26-1.78,6.33-3.77,8.67-.88,1.03-2.56,1.55-3.37,2.62-1.36,1.8-.64,5.19-3.97,4.43"/>
      <path class="cls-2" d="M48.25,280.72c.98-1.92,2.5-1.25,3.97-1.62,3.86-.95,7.65-2.83,11.11-4.43,10.85-5.03,19.27-11.27,27.58-18.95,5.27-4.89,10.63-10.37,15.08-15.93,5.39-6.73,8.78-15.25,16.47-19.96.17-.04.18.08.2.2-1.53,10.23-8.8,16.6-14.09,23.6-1.84,2.43-2.98,5.12-4.76,7.66-2.45,3.5-6.91,6.14-10.51,9.08-10.78,8.78-23.92,15.54-37.89,20.57-.9.87-.91,1.95-2.38,2.22-1.98.36-4.17-.91-4.76-2.42"/>
      <path class="cls-2" d="M23.45,235.35c.58.8.18,1.44.2,2.62-2.3.78-2.82,4.36-5.95,3.63-2.27,1.39-4.5,2.82-7.54,3.43.58-3.78,6.3-2.34,6.75-6.25,1.97-1.25,3.7-3.74,6.54-3.43Z"/>
      <path class="cls-2" d="M68.88,286.77c-.07,4.27-5.76,5.14-9.13,3.63,3.44-.81,4.94-3.58,9.13-3.63Z"/>
      <path class="cls-2" d="M57.37,291.81c-1.9,1.23-3.24,3.02-4.56,4.84-1.68.69-4.66-.49-6.75-.2-4.18.59-7.88,4.24-12.1,2.22-.33-3.44,3.57-2.39,6.75-2.62,3.56-.26,7.09-1.84,10.32-1.61,1.41-1.42,3.49-3.99,6.35-2.62"/>
      <path class="cls-2" d="M169.06,294.43c1.5-.12,2.49.3,3.37.81v3.43c-1.23.43-1.42,1.26-2.58,1.01-1.02-.22-1.12-1.7-1.98-1.82-1.58-.21-1.89,1.64-3.17,2.42-5.98,1.65-9.25,6.06-16.86,6.05-.61.32-.7,1.18-1.19,1.62-3.9-.3-7.97.64-10.91-.4.68-1.17.8-1.74,1.19-3.03h3.17c.89-.11.86-1.14,1.59-1.41,4.26-1.74,9.54-1.68,14.09-3.03,1.39-.41,2.39-1.27,3.77-1.82,3.27-1.28,7.99.33,9.52-3.23v-.61Z"/>
      <path class="cls-2" d="M70.47,308.75h-11.51c.7-3.39,7.08-.94,9.92-1.82-.09,1.24,1.52.74,1.59,1.82"/>
      <path class="cls-2" d="M100.42,303.51c-.06.93,0,1.75.39,2.22,1.64,1.05,4.05.49,3.57-2.22-1.17-.71-2.8-.71-3.97,0M115.3,299.48c-.06.04.06.59,0,.61-.97.28-1.54.49-3.17.2-.4,2.15-4.04,1-4.56,3.03,3.32.95,8.08.42,10.12-1.21v-2.62c-.78.25-1.8-.34-2.38,0M119.47,300.28c2.21.09,4.43.19,3.97-2.42-2.18-.06-4.43-.19-3.97,2.42ZM126.01,298.67c1.46,0,2.73-.18,3.37-1.01.1-4.15-6.35-1.93-3.37,1.01ZM106.37,292.82c-1.29,1.44-4.18.61-5.76,1.62-1.1.7-.65,1.7-1.59,2.62-1.18.27-3.52-.62-3.77.61v.61c2.24,1.36,4.94-.21,6.35-.61,6.33-1.77,14.88-1.36,16.86-7.46-5.22-1.12-6.79,3.16-12.1,2.62M112.33,283.14c-3.4,1.8-9.48,4.44-13.49,6.45-2.33,1.17-5.86,2.39-3.37,4.84,7.06-2.91,13.91-6.03,20.63-9.28v-2.42c-.86-.26-3.35.18-3.77.4ZM123.64,279.71c-.39-2.85-4.68.4-5.95,1.41v2.42h3.17c.41-1.6,3.01-2.11,2.78-3.83M151.8,275.27c-1.17.38-1.02,3.38-.2,4.03,2.16-.03,3.17-1.21,3.37-3.23-.71-.63-1.73-.93-3.17-.81ZM119.67,276.49c1.1-.75,3.64-2,3.77-2.62.12-.55-.57-2.22-1.59-2.02-.26.05-1.4,1.62-2.38.81-1,2.15-2.57,3.18-4.96,2.62-.86-.2-1.05-1.01-1.98-1.01-1.68,0-2.75,1.32-2.98,3.43.15.04.23.17.2.4,3.17,1.42,7.61-.05,9.92-1.61ZM107.37,267.81c-.79.85-3.1,1.99-2.78,3.63.05.26.73,1.12,1.19,1.21,2.01.41,1.93-2.37,3.57-2.83-.7-.63-1.07-1.6-1.98-2.02M94.47,270.84c3.36.33,4.01-2.11,6.75-2.42v-2.42c-4.01-.18-6.53,1.16-6.75,4.84M171.65,259.34c-4.04,5.64-12.55,6.75-14.09,14.92,7.39-1.1,10.55-6.48,16.47-9.08.55-1.59,1.74-2.53,1.79-4.64-.58-1.23-2.29-1.3-4.17-1.21ZM162.52,227.28c1.76.52.68,3.48-.2,4.23-1.46.43-3.39-.11-4.16-1.01-.27-2.36.44-3.73,1.79-4.43-.3-2.35,2.56-7.64-.2-7.87-2.05-.17-1.21,2.66-1.39,4.84-6.27,10.86-10.92,22.99-18.85,31.66-1.11,1.21-2.66,2.31-3.57,3.63-1.08,1.57-1.59,3.47-2.98,4.84-1.32,1.32-2.76,1.97-4.56,2.83-.6,1.07-1.18,2.15-2.18,2.83-1.69.43-2.78,1.48-3.37,3.02,3.8,2.31,5.96-.63,8.33-2.62,10.16-8.54,17.26-21.68,24.6-31.66-.06-.93,0-1.75.4-2.22.76-.5,2.66-.92,3.77-.4.73,2.28-1.25,3.38-2.38,4.43.37,2.12-1.18,2.92-1.59,4.03-.3.81-.15,1.75-.39,2.42-1.53,4.07-5.67,6.21-8.13,9.28-3.6,11.6-15.99,14.26-21.23,24.2,12.5-2.56,16.94-13.3,27.77-17.54.05-2.54-3.23-1.93-4.76-1.82,4.03-7.47,8.89-14.09,13.89-20.57v-1.82c3.54-1.3,1.81-7.98,3.17-11.49,0-.73,1.41-.05,1.19-1.01,2.09-8.93,7.63-21.94,4.76-32.07-6.54,8.07-3.35,26.04-9.72,34.28M122.64,266c.39-.28,1.13-.19,1.59-.4,7.68-7.42,15.45-15.73,21.23-26.41,4.02-7.43,7.34-16.56,10.51-25.21,1.11-3.02,2.8-6.1,3.17-8.88.27-2.01-.28-3.86,0-5.64.4-2.61,1.82-5.1.39-7.87-.28-.05-.33-.33-.6-.4-.69.85-1.28,1.79-2.38,2.22-.06,1.14.35,1.79.2,3.03,0,.75-.97.49-.99,1.21-4.33,25.38-14.35,44.96-28.17,60.7h-1.59c-3.07,2.66-6.08,5.39-8.53,8.67,2.09-.48,1.98,2.25,3.17,2.02,1.24-.43,1.11-2.23,1.98-3.02ZM123.44,189.57c2.64-.02,3.94-2.43,3.17-5.24-2.83-.97-4.73,2.99-3.17,5.24ZM171.05,187.35c1,.66,2.28.31,2.98-.4v-5.04c-3.26-2.78-4.04,2.77-2.98,5.44ZM134.94,180.7c.31-1.59,2.6-6.62,0-7.87-3.06-1.47-2.35,5.34-2.18,8.07-.9.43-.86,1.82-.79,3.23-.15.59-1.07.39-.99,1.21-.15,1.37.27,2.14.2,3.43,3.27.57,3.27-2.19,3.17-5.04.22-.31.65-.42.59-1.01.09-.47-.12-1.38,0-2.02M139.5,175.45c2.06,1.74,3.58-.64,2.98-3.43-1.07.14-1.26-.59-1.99-.81.75,1.81-1.33,2.2-.99,4.23ZM126.81,173.43c-.12.41-1.01.06-.8.81.88,3.57-2.46,5.72,0,8.47,1.06.13,1.7-.16,2.18-.61.28-1.59.01-3.75,1.19-4.43.17-1.47-.46-2.66-.2-3.83.1-.45.85-.61.99-1.01.54-1.47-.52-2.97-.2-5.04-2.56-2.19-3.51,2.41-3.17,5.64M142.48,162.54c-.62-13.91-6.34-25.69-14.09-33.27-2.61-2.56-6-5.82-8.93-6.86-.68-.24-1.83-.12-2.78-.4-1.1-.33-3.53-1.97-5.76-2.62-1.71-.5-5.8-.77-6.15.61-.5,1.96,3.58,3.06,5.55,3.23,3.04,2.56,6.91,4.27,11.7,5.04,3.72,2.4,6.3,5.96,8.93,9.48v2.02c4.44,4.16,6.93,10.3,7.54,18.35,3.63,1.82-.13,11.16,3.57,12.9.83-2.4.53-5.49.39-8.47M.04,170.21c4.28-5.4,7.8-12.7,11.51-18.75,7.18-11.71,15.39-22.11,25.59-31.26,13.21-11.84,28.04-20.79,47.62-27.83.86-.61,1.31-1.72,2.38-2.02.84-.23,1.77.14,2.58,0,.97-.17,2.4-.86,3.57-1.21,1.26-.38,2.7-.75,3.57-1.21.95-.49,1.64-1.56,2.58-2.02,3.08-1.49,7.89-1.42,10.12,1.21-2.43,1.83-7.94.53-9.92,2.83,4.77,1.2,12.89.21,17.26,2.42-2.05,1.38-4.98.6-7.94.6s-6.2.74-8.33-.2c-1.26-.55-1.87-1.94-2.98-2.22-1.36-.35-2.91.14-4.36.4-1.4.26-2.8.66-3.77,1.21.02,2.13.87,3.42,1.59,4.84,1.97.56,3.19-.93,4.96-.81.84.06,1.44.67,2.38.81.81.11,1.9-.08,2.98,0,1.56.12,3.16.78,4.36.61,1.26-.18,1.99-1.18,3.17-1.41,3.93-.76,7.19,1.03,10.51,2.02,5.95,1.77,12.01,4.41,17.06,7.46,6.83,4.14,13.83,8.21,18.65,13.91,10.78,12.75,14.19,29.5,17.86,47.59,2.47.69,1.87,2.93,1.79,6.45-.06,2.57.23,4.74-.79,6.25.61.46,1.29.68,1.59,1.62.28.87-.23,2.03,0,2.82.35,1.18,1.57,1.77,1.79,2.62.51,1.97-.2,4.19-.2,6.05,0,2.31.37,4.37.2,6.65-.84,11.16-8.08,20.18-6.35,31.87,2.66-.18,2.27-3.47,3.97-4.64,1.02-7,3.78-14.03,4.76-21.37,1.2-9.03-1.68-17.95-.8-28.03.06-.8-1.39-.07-.99-1.21-3.5-23.29-7.11-43.95-19.44-58.28-2.01-2.34-3.98-4.65-6.15-6.86-2.09-2.13-4.25-4.57-6.54-6.25-1.63-1.2-4.1-2.12-6.15-3.43-1.23-.79-2.18-2.09-3.37-2.62-1.66-.75-4.29-1.16-6.75-2.02-2.18-.76-4.61-1.77-6.55-2.02-1.63-.21-4.11.63-4.56-1.82,1.31-.61,2.77-1.42,4.56-1.01.94.22,2.11,1.72,3.17,2.22,3.48,1.64,8.32,1.76,10.91,3.03.69.34,1.5,1.32,2.38,1.82,2.12,1.2,4.4,1.72,6.35,2.83,28.17,15.96,37.02,56.02,38.89,99.01.07,1.63.62,3.7,0,5.24-.31.79-1.03.88-1.59,1.82-.51,7.85-4.19,13.74-5.95,21.17-.5,2.12-1,5.88-2.78,6.05-1.45.14-1.71-1.81-2.98-2.02-2.42-.39-3.17,2.18-3.57,4.64-.63.56-1.95.43-2.57,1.01.02,1.3-.78,1.77-1.39,2.42-1.49,8.03-8.54,10.4-10.51,17.95,4.07.14,5.33-4.1,7.54-6.25.79-.77,1.87-1.05,2.58-1.82,2.33-2.53,2.99-6.35,5.55-8.67.32-2.5.99-4.64,3.37-5.04,1.49,3.37-2.18,5.64-3.37,8.27-.44.96-.33,1.95-.79,2.82-.9,1.72-2.59,2.87-3.37,4.43-.45.91-.35,2.05-.79,3.02-.56,1.22-2.17,2.73-3.17,4.03-1.16,1.5-2.29,2.97-3.57,3.63-.79.41-1.77.39-2.58.81-5.26,2.71-8.52,7.63-11.31,12.5-4.23,1.28-5.53,5.53-11.51,5.04.56,2.7-1.79,4.07-5.16,3.43-.94,1.74-3.44,1.88-3.97,4.03,7.09.24,11.88-3.16,16.66-6.25,11.39-7.36,19.71-18.05,29.56-26.42.17-5.78,5.52-8.57,6.94-13.11.36-1.15.11-2.37.39-3.83.72-3.65,2.77-7.16,4.17-10.29,1.49-3.33,3.12-6.6,4.17-10.09,2.19-7.26,2.68-16.8,2.18-26.21-.48-9.04-.68-18.14-1.98-26.82-4.94-32.87-18.09-58.02-41.66-73-3.05-1.94-5.82-3.61-8.73-5.44-1.55-.98-3.13-1.85-4.76-2.42-1.87-.66-3.75-.4-6.15-.81-2.06-.35-4.34-1.64-7.14-1.82-2.43-.15-6.08,1.26-7.14-1.62,3.32-2.59,6.83.66,10.12,1.41,1.97.45,4.07.12,5.95.4,3.57.54,6.74,1.7,9.52,3.23,1.34.74,2.4,2.03,3.77,2.62,2.24.96,4.62.56,6.35,1.61,1.23.75,1.74,2.45,2.78,3.23,4.13.65,5.57,4.02,7.74,6.65h1.98c22.12,17.51,30.15,49.35,33.13,86.31.94,1.2,1.9.99,2.38,2.42.44,1.3.05,2.76,0,4.03-.42,10.62-1.29,18.71-4.36,27.43-2.01,5.71-4.65,11.21-7.54,16.34-.98,1.74-2.55,3.28-2.98,4.84-.33,1.21-.07,2.38-.39,3.43-1.1,3.55-4.17,5.1-4.56,8.67-1.16-.06-2.39,1.82-1.19,2.82,1.23.66,2.17-1.13,2.98-2.02,2.42-2.65,6.54-5.94,7.14-10.09.3-2.07-.68-6.76,2.98-5.64,3.43,1.04.21,6.47-.79,8.07-.69,1.1-1.89,2.25-2.78,3.63-.92,1.43-1.3,3.15-1.98,4.23-1.12,1.78-4.07,2.69-2.98,5.24,2.62.51,2.77-1.48,3.77-2.62,1.9-.16,1.88-2.26,3.57-2.62.16-2.3,2.42-3.28,3.37-5.24,2.1-4.34,3.13-8.81,6.15-12.3,1.06-1.23,2.43-1.89,3.57-3.23-.61-2.49.58-4.57,1.19-6.05,1.37-3.32,2.55-7.6,3.97-11.7,1.37-3.95,3.01-8.28,3.17-12.3.17-4.13-.6-8.19,0-13.31-.6-.62-.4-1.55-.79-2.22-.66-1.13-1.53-1.02-1.79-2.62-.25-1.58.51-3.11.2-4.84-.21-1.18-1.01-2.52-1.39-3.83-1.09-3.78-1.98-8.33-2.78-12.9-1.01-5.85-1.55-12.32-3.17-17.54-.33-1.06-.95-1.85-1.19-2.82-.47-1.88-.17-3.68-.59-5.64-.35-1.58-1.42-3.33-1.98-5.04-1.61-4.85-2.95-11.24-5.35-15.33-1.61-2.72-4.23-5.31-6.35-7.46-2.35-2.39-4.86-4.52-6.75-7.06-.46-.41.06-1.8-.4-2.22-1.63-1.33-3.47-1.75-5.16-3.03-1-.75-1.55-2.03-2.57-2.83-2.19-1.7-5.66-2.67-8.53-4.03-8.3-3.94-17.44-7.88-25.59-11.9,7.02,1.06,13.48,3.5,19.25,6.25,13.55,6.46,25.62,14.33,34.32,25.41,3.86,4.92,6.9,10.19,8.73,17.14.58,2.22.54,4.63,1.19,7.26.21.84.81,1.57.99,2.42.38,1.82.04,4.05.59,5.64.45,1.28,1.47,2.38,1.98,3.63.99,2.4.72,4.75,1.39,8.07.18.9.88,1.8.99,2.82.23,2.04-.58,4.18,0,6.25,3.32,1.54,2.98,6.79,3.97,10.69.43.65,1.45.67,1.79,1.41,1.61,9.84,2.84,21.59,1.79,32.87-.06.61-1.26.06-.99,1.01-1.34,9.66-5.98,15.97-8.53,24.4-1.9,1.12-2.02,2.58-3.17,4.84-1.01,1.98-3.15,3.83-4.17,5.85-.55,1.1-.66,2.39-1.19,3.43-1.24,2.43-4.1,4.38-4.96,6.65-.4,1.05-.25,2.46-.79,3.43-.59,1.06-2.43,1.68-3.37,2.62-.66.66-1.07,1.63-1.79,2.42-1.82,2.02-3.93,4.52-6.35,6.25-8.31,5.94-19.69,10.48-28.96,15.93-3.22,1.88-5.99,4.44-8.93,5.85-1.71.82-4.38.91-4.96,3.03,2.41,1.82,5.53-.44,7.74-1.41,12.4-5.46,25.35-11.76,35.91-19.36,2.15-1.54,4.18-3.29,5.95-5.24,1.36-1.51,3.46-4.84,6.15-3.23-1.24,4.72-6.28,5.58-6.75,11.09-3.86-.86-4.49,2.32-6.54,3.83-5.23,3.83-13.46,5.28-19.64,8.47-1.92.99-3.88,2.17-4.96,3.83,3.54,1.27,6.32-1.25,9.92-1.21.86-1.81,3.64-1.68,6.35-1.62,3.62-2.62,7.69-4.58,11.7-6.65,3.95-2.04,6.98-5.93,11.5-6.45.2,3.7-7.71,3.98-8.33,7.06-.11.55.08,1.02,0,1.62.55.72,1.31,1.22,2.58,1.21,1.22.23-.03-2.05,1.19-1.82.95.17,2.64-.4,2.98.4.16,2.87-4.49,4.02-6.75,2.83-.78-.41-.52-1.07-1.39-1.42-3.21-.06-5.01,2.29-7.74,3.43-.73.3-1.57.3-2.38.6-.68.25-1.3.82-1.98,1.01-.57.16-1.35.06-1.99.2-3.12.7-6.39,2.29-9.92,3.43-8.26,2.66-16.66,5.32-24.8,8.47-3.17,1.23-4.91,1.56-6.35,3.83-7.86-.76-16.44.69-24.21.2-4.36-.28-8.55-2.97-13.89-1.82-.92.2-1.87,1.09-2.98,1.41-1.77.51-3.97.7-5.76.61-1.58-.08-3.86-.18-4.56-1.82,8.85-.89,14.67-4.86,23.61-5.64-2.84-8.64-12.18.22-19.64-.4-.75.86-2.32.87-3.77,1.01-.91.14-.34,1.47-.99,1.41-5.97.47-13.54,2.29-20.04,1.82-2.25-.17-4.74-.6-6.15-2.02,2.44-1.55,4.68-.36,7.34-.2,6.56.4,12.68-3.34,19.05-1.41.94-2.56,2.94-2.79,5.75-3.43,7.36-1.67,16.87-8.21,24-12.5,1.43-.86,7.41-3.49,7.54-4.63.08-.7-.8-1.03-.79-1.82-8.74,2.89-16.09,8.68-24.99,12.1-4.1,1.58-9.05,2.25-11.7,5.44-1.96.44-4.35,1.06-6.54,1.21-1.97.13-6.12.36-6.54-.81-.88-2.39,2.91-2.17,4.36-2.22,4.22-.13,7.52-1.17,10.71-2.42,1.64-.64,3.31-.96,4.76-1.61,1.4-.63,2.77-1.94,4.36-2.83,5.49-3.02,12.13-5.64,16.87-9.28.9-.69,2.38-1.41,1.98-2.82-5.9-.53-9.62,4.51-14.28,6.45-2.38.99-4.83,1.39-7.14,2.42-2.15.96-4.23,2.28-6.75,2.42-.39-4.45,4.25-3.5,6.94-4.64,1.09-.46,2.01-1.58,3.17-2.22,3.2-1.76,8.52-2.78,8.93-7.26-5.1.7-9.23,3.33-13.49,5.64-10.43,5.67-22.41,9.31-35.91,11.9-2.56.49-5.44.72-7.94,1.62-1.13.41-1.44,1.15-2.98,1.21-1.47.06-3.88-.29-3.37-2.42.49-2.03,7.04-1.1,9.52-1.41,9.14-1.14,18.92-3.41,25.79-6.65,9.71-4.59,20.05-9.82,27.77-15.73,4.01-3.07,7.66-6.85,11.31-10.49,3.71-3.7,7.36-7.39,10.51-11.29,5.84-7.22,9.62-15.55,15.47-22.79.67-.82,1.53-2.19,2.78-2.22,1.68,6.06-2.72,10.68-6.35,13.31-4.14,11.96-12.21,19.87-20.24,28.03-1.1,1.12-2.79,2.14-2.78,4.03,3.41,1.14,6.5-2.76,8.53-4.64,16.62-15.39,25.96-40.27,36.9-60.7-3.33,28.64-19.7,46.62-35.51,63.92-1.25,1.37-2.62,2.79-2.38,3.83.97,4.25,6.26-2.08,7.54-3.43,2.05-2.16,4.15-3.61,5.76-5.24,1.87-1.9,3.37-4.65,5.16-7.06,11.82-15.97,22.15-35.76,26.78-58.89-.05-.73,1.34.02.99-1.01v-25.81c-1.43-.76-.54-3.89-2.58-3.83-1.94.06-1.77,4.37-1.59,6.65.32,3.94.99,8.7.6,13.91-.37,4.92-.89,9.68-2.38,12.3-3.87-2.64-.68-11.08-.39-15.12.09-1.32-.16-5.87-2.18-5.65-1.15.12-2.67,4.64-2.78,5.85-.36,4.17,1.85,9.66.59,12.9-.37.96-1.18.92-1.58,1.82v3.03c-1.8,1.53-1.31,5.39-2.78,7.26h-3.17c-.36-.91-1-1.53-.99-2.82.12-.95,2-.11,1.98-1.21,1.42-7.04,4.22-13.71,3.17-22.59-4.38,1-3.32,7.41-3.77,12.3-.46,5.06-2.63,10.3-4.56,14.72-1.53,3.52-3.14,6.31-5.35,9.08-.61.76-1.17,2.26-2.38,2.02-.8-1.55-.32-3.2.2-4.63.43-1.2.91-2.95,1.59-4.03.59-.94,1.58-1.2,1.98-2.22.78-1.97.17-4.7.99-7.06.54-1.54,2.23-3.01,1.19-5.64-1.6.48-1.44,2.52-2.18,3.83-.46.81-1.35,1.34-1.79,2.22-.96,1.94-1.49,5.01-2.58,7.26-1.05,2.19-3.27,3.32-2.38,7.26-1.98,3.37-5.74,4.92-7.14,8.87-.97.62-1.77,1.43-2.58,2.22.25.88.25,1.94,0,2.82-1.11,1.49-4.82,1.44-5.16-.4-.17-.96,1.42-3.29,2.18-4.64,5.47-9.71,14.41-18.27,15.08-31.86-5.74,6.37-9.36,15.93-13.89,24.2-1.5,2.74-3.35,5.17-4.76,7.87-.41.79-.69,1.84-1.19,2.62-2.01,3.18-6.43,4.23-6.54,9.28-1.49.4-2.85.91-3.97,1.82-1.76,1.42-2.39,3.65-3.77,5.44-.71.92-2.16,2.17-3.37,3.23-1.2,1.05-2.2,2.41-3.17,3.23-1.1.91-2.72,1.52-3.97,2.42-3.23,2.34-7.04,6.56-10.32,8.47-1.92,1.12-4.3,1.01-5.36,3.83,5.39.71,7.52-1.55,10.72-3.83,10.9-7.8,20.74-19.45,29.96-27.83-.76,9.58-9.03,11.52-11.7,19.15-14.06,8.56-24.45,20.87-43.85,24-2.54,1.9-6.34,2.15-9.72,3.43-5.16,1.94-10.78,4.57-17.46,5.24,4.73-2.53,9.66-4.59,15.28-6.45,1.73-.58,3.42-1.47,5.16-2.02.81-.26,1.77-.13,2.58-.4,1.65-.55,2.98-2.51,5.76-2.02,2.08-1.28,4.23-2.44,6.94-3.63,1.71-.75,6.73-1.93,6.35-4.23-.17-1.03-1.9-2.02-4.56-1.41-.86.2-2.24,1.73-3.77,2.42-3.44,1.56-7.7,3.09-12.5,4.23-4.51,1.08-9.45,1.87-13.09,3.43-1.43.61-2.88,2.14-4.17,2.02-1.18-.11-2.56-1.61-2.18-2.83.44-1.39,3.41-.89,4.56-1.01,5.09-.51,10.94-2.77,15.67-4.24,1.68-.51,3.54-.76,5.16-1.41,2.68-1.08,5.46-3.36,8.13-5.04,8.05-5.07,15.26-10.61,23.21-15.93,1.52-2.75,2.98-5.08,5.36-7.06,1.08-.89,2.72-1.27,3.77-2.22.59-.53,2.6-3,2.98-3.83.35-.76.21-1.84.59-2.62,1.43-2.88,5.6-4.27,6.35-7.87,10.67-10.74,17.89-26.01,22.42-43.76,1.15-4.49,2.25-8.18,1.59-13.91.45-1.22,1.97-1.36,2.58-2.42-.36-5.34-1.22-10.71-3.17-15.13-1.65-3.71-4.58-8.44-7.74-10.29-1.76-1.03-4.26-2.06-6.54-3.23-3.34-1.7-8.45-3.78-12.69-1.41-2.3,1.28-5.1,5.07-7.14,7.66-5.47,6.94-9.67,14.26-15.08,21.98-1.85,2.64-3.4,3.58-2.98,7.46-2.21.73-4.13,2.54-3.57,5.44-.86.47-2.23.43-2.98,1.01-.42.58,0,2.01-.39,2.62-7.32,10.21-15.34,20.8-22.62,31.46-2.02,2.95-3.13,5.86-5.36,8.27-2.06,2.24-4.46,4.2-6.94,6.45-4.48,4.06-9.16,9.51-16.27,10.09-.1-3.04,3.17-2.58,4.76-3.83.74-.58.97-1.72,1.58-2.42,1.9-2.14,4.62-3.84,6.75-6.05,2.17-2.26,4.1-4.56,5.95-6.86,6.58-3.54,7.25-13.07,13.49-16.94,6.01-15.94,15.89-27.94,25.59-40.13,3.17-11.49,10.24-19.03,19.64-24.2,3.86-7.72,16.77-4.47,22.62-.81,1.19.75,2.13,1.87,3.37,2.62,2.44,1.47,4.25,2.17,6.15,4.03,4.24,4.15,6.72,10.2,7.54,18.35.41,4.03.14,6.85,2.78,8.88.51,1.85,1.39,4.34,2.98,4.43.1-9.55-2.38-20-5.95-27.63-2.95-6.31-7.75-12.35-13.49-14.92-2.3-1.03-5.99-1.55-8.93-2.83-1.31-.57-2.66-1.93-3.97-2.22-1.31-.29-3.29-.18-4.96,0-7.35.79-13.77,6.73-18.45,11.49-1.75,1.79-4.05,3.65-4.96,5.04-1.76,2.72-1.79,6.44-5.16,7.46v2.62c-4.84,6.33-9.74,12.36-14.28,19.15-8.15,12.18-15.58,25.57-23.61,38.32-.26.61-.2,1.54-.2,2.42-3.88,3.31-5.9,8.52-11.31,10.29-1.15,2.17-3.56,5.06-6.54,4.03-.49-2.71,2.08-4.32,3.57-5.64,1.65-1.47,3.52-3.04,4.76-4.63.81-1.05,1.15-2.43,1.98-3.43,1.4-1.7,2.93-2.86,4.17-4.43,3.77-4.82,6.09-10.59,8.73-17.14,6.22-15.47,16.92-29.09,26.58-41.94,4.59-6.1,9.22-14.6,15.67-18.55,1.38-.85,3.62-1.2,5.36-2.02,4.79-2.25,8.97-7.28,15.47-7.26.23-1,1.24-.38,1.98-.81.84-.49.99-1.26,1.99-1.61,1.64-.58,4.57-.71,6.54,0,1.47.53,1.95,1.66,3.37,2.22,1.51.6,2.96.56,4.36,1.01.92.29,1.78,1.33,2.78,1.61.75.21,1.52-.05,2.18.2.82.31,1.58,1.5,2.58,2.02.82.43,1.72.44,2.38.81,6.53,3.61,9.15,11.68,12.9,18.75.89,1.69,1.92,3.29,2.78,5.04,1.19,2.45,2.08,5.09,3.57,7.06.25,2.01-.74,4.2.2,5.64h2.38c2.45-5.3-.75-10.71-2.78-14.92-4.42-9.16-9.02-15.98-16.07-22.79-2.35-2.27-5.26-4.3-8.33-6.25-1.08-.68-1.81-1.89-2.58-2.22-.86-.36-2.21-.11-3.17-.4-1.12-.34-1.8-1.06-2.58-1.21-3.61-.67-8.5.08-12.3.81-21.37,4.09-35.48,18.27-45.23,33.88-1.63,2.61-2.95,5.56-4.76,8.27-1.77,2.64-5.53,4.72-5.76,9.08-1.23.42-1.91,1.51-2.78,2.42-.83.87-1.93,1.38-2.78,2.22-3.97,3.94-6.19,11.55-8.53,17.54-3.26,8.34-6.8,15.44-13.29,20.16.63,4.52-3.08,5.08-5.55,6.65-2.45,1.56-3.59,5.09-6.15,4.63-.54-4.25,3.57-3.77,5.55-5.44-.52-2.77,1.84-3.5,2.98-4.84.68-.8,1.27-2.14,1.98-3.23,4.75-7.22,12.15-14.63,11.91-26.82,6.05-10.49,13.57-19.88,20.03-30.05,2.37-3.72,4.25-8.17,6.95-11.49,2.08-2.56,5.16-4.58,7.74-6.86,6.51-5.74,13.43-10.74,22.22-14.12,1.61-.62,3.82-.92,5.36-1.82.83-.48,1.08-1.44,2.18-1.82,1.74-.6,3.58.16,4.96-.2,1.31-.34,2.12-1.89,2.98-2.22,2.26-.86,5.33-.84,7.54,0,.71.27,1.36,1.38,2.38,1.61,1.25.29,2.89-.48,4.36-.2.86,1.09,2.44.77,3.57,1.21.79.31,1.68,1.23,2.38,1.62,5.13,2.82,9.35,4.7,13.1,8.27,10.75,10.25,16.8,24.87,21.62,42.15.73.79,1,.82,1.39,1.61,1.1,2.24,1.12,7.83,0,10.08-.29.58-1.26.98-1.39,1.61-.27,1.31.81,2.57.99,4.03.26,2.06-.87,5.59,1.79,5.24.94-.05.49-1.52.59-2.42,3.38.18,1.03-4.52.79-6.05-.61-4.03.51-9.04,0-13.11-.67-5.33-3.23-11.46-5.35-17.15-5.27-14.09-11.6-25.06-22.22-33.88-2.05-1.7-4.21-3.82-6.35-4.84-3.33-1.58-8.1-2.43-12.1-3.03-4.81-.72-9.87-.86-14.28-.61-7.63.44-14.09,3.09-20.04,6.25-8.93,4.74-15.86,10.35-21.82,17.75-5.74,7.11-13.99,12.44-16.87,22.59-3.99,3.42-6.96,7.65-9.92,12.1-2.85,4.28-5.48,9.24-8.93,12.9-2.8,2.98-6.32,4.82-8.33,8.47-4.42,1.22-3.85,7.52-8.53,8.47-.52,1.42-1.77,2.96-3.57,2.42-.07-2.56,3.07-3.38,4.56-5.04,1.5-1.67,2.55-4.3,3.97-6.45,8.13-12.35,16.43-24.24,25.4-36.5,1.97-2.69,4.75-4.38,4.36-8.27,1.24-1.77,2.84-3.09,4.36-4.64,1.52-1.55,2.62-3.39,4.17-4.84,2.63-2.46,5.93-4.82,8.73-7.26,7.06-6.15,14.42-12.28,24.21-15.73,1.93-.68,4.06-1,6.15-1.82.88-.35,1.69-1.17,2.78-1.41,2-.46,4.87.04,6.75-.4,1.47-.35,2.82-1.4,4.56-1.62,4-.48,10.8.13,14.68,1.41,1,.33,1.79,1.35,2.98,1.82,2.56.99,6.12.72,7.94,2.82,12.18,4.12,19.69,14.26,25.99,26.02,2.93,5.47,5.61,11.48,7.74,18.35,2.62,8.49,5.79,20.87,1.59,29.24.92,2.2-.89,3.99-.79,6.05.05,1.03.77,1.93.79,3.03.06,2.78-1.86,5.19-2.38,7.87-.08,1.1.91,1.1.79,2.62-.08.99-1.47,1.68-1.79,3.02-.41,1.73.2,3.9.2,5.85,0,1.97-1.07,4.7.99,5.24,1.31-.73.06-2.83.4-4.43,5.68-3.51,2.37-15.47,5.16-23.19.39-1.1,1.38-2.07,1.59-3.03.28-1.33-.08-2.7.2-3.83.31-1.28,1.26-2.14,1.39-3.23.3-2.52-1.56-4.2-.79-6.25-3.13-1.27-1.18-7.45-1.59-11.29-.68-6.48-3.44-14.2-5.75-19.96-1.2-3.01-2.7-5.84-4.17-8.67-2.98-5.74-5.97-10.16-10.12-14.52v-2.42c-3.55-.84-4.68-3.11-6.95-5.04-1.98-1.68-4.89-3.07-7.34-4.43-6.18-3.44-13.39-6.72-23.02-6.45-1.64.04-3.65.58-5.55.2-1-.19-1.73-1.25-2.98-1.41-1.25-.16-2.82.48-4.36.61-1.24.11-2.71-.19-3.97,0-2.1.31-4.47,1.74-6.75,2.62-11.32,4.38-21.11,9.72-29.36,16.94-3.22,2.83-6.09,5.99-9.32,9.08-6.55,6.24-12.42,12.71-17.46,19.76-5.19,7.28-10.05,15.02-16.07,20.97.47,2.83-1.24,3.45-2.38,4.63.04,2.74-1.69,3.66-3.37,4.64-.33,2.55-1.98,3.99-3.57,5.64-.97,1-1.69,2-2.58,2.62-1.08-3.98,2.62-5.93,4.17-8.47,1.87-3.07,2.42-7.33,5.95-8.87.04-3.99,3.09-4.93,5.16-6.86,3.35-9.04,8.3-16.43,13.89-23.19v-2.02c14.3-16.32,32.18-29,53.96-37.71-.22-1.23,1.42-.57,1.59-1.41v-2.62c-3.22-1.26-4.84.97-6.75,1.62-.67.23-1.48-.03-2.18.2-.82.27-1.05,1.03-1.98.6-8.65,6.2-18.51,10.42-27.18,16.54-6.03,4.25-12.01,10.07-17.06,15.73-1.74,1.95-3.78,3.58-5.36,5.44-3.6,4.23-6.14,10.4-9.92,15.33-1.04,1.35-3.61,3.08-3.97,4.43-.31,1.16.25,2.73,0,3.63-2.34,3.09-6.59,6.81-9.13,11.29-.69,1.22-1.29,4.08-2.38,4.23-1,.15-1.66-1.25-1.98-1.82v-1.82l.04.05Z"/>
      <path class="cls-2" d="M141.69,2.42c.86.06,2.64-.3,4.16-.2.99,1.01,3.02.96,3.37,2.62,8.23,1.24,16.47,3.55,20.43,8.47-2.34-.11-4.43-1.55-6.94-.81-4.62-5.79-17.05-3.64-21.03-10.09Z"/>
      <path class="cls-2" d="M83.76,79.46c-8.99,4.03-17.56,6.98-25.2,12.1-7.43,4.99-14.68,10.3-23.21,13.91-.17-.04-.18.08-.2.2,5.07-7.18,13.64-11.35,21.82-15.53,8.34-4.26,15.66-9.88,26.78-10.69"/>
    </g>
  </g>
</svg>
